<svg xmlns="http://www.w3.org/2000/svg" xmlns:xlink="http://www.w3.org/1999/xlink" viewBox="0 0 109.68 2.73"><defs><style>.cls-1{isolation:isolate;}.cls-10,.cls-11,.cls-12,.cls-13,.cls-14,.cls-15,.cls-16,.cls-17,.cls-18,.cls-19,.cls-2,.cls-20,.cls-21,.cls-22,.cls-23,.cls-24,.cls-25,.cls-26,.cls-27,.cls-28,.cls-29,.cls-3,.cls-30,.cls-4,.cls-5,.cls-6,.cls-7,.cls-8,.cls-9{fill-rule:evenodd;}.cls-2{fill:url(#New_Gradient_Swatch_147);}.cls-3{fill:url(#New_Gradient_Swatch_147-2);}.cls-4{fill:url(#New_Gradient_Swatch_147-3);}.cls-5{fill:#cece4a;}.cls-6{fill:url(#linear-gradient);}.cls-7{fill:url(#linear-gradient-2);}.cls-8{fill:url(#New_Gradient_Swatch_148);}.cls-9{fill:url(#radial-gradient);}.cls-10,.cls-11,.cls-19,.cls-22{mix-blend-mode:screen;}.cls-10{fill:url(#radial-gradient-2);}.cls-11{fill:url(#radial-gradient-3);}.cls-12{fill:url(#linear-gradient-3);}.cls-13{fill:url(#linear-gradient-4);}.cls-14{fill:url(#linear-gradient-5);}.cls-15{fill:url(#linear-gradient-6);}.cls-16,.cls-17,.cls-18,.cls-21{mix-blend-mode:multiply;}.cls-16{fill:url(#linear-gradient-7);}.cls-17{fill:url(#linear-gradient-8);}.cls-18{fill:url(#linear-gradient-9);}.cls-19{fill:url(#linear-gradient-10);}.cls-20{fill:url(#linear-gradient-11);}.cls-21{fill:url(#linear-gradient-12);}.cls-22{fill:url(#linear-gradient-13);}.cls-23{fill:url(#linear-gradient-14);}.cls-24{fill:url(#New_Gradient_Swatch_148-2);}.cls-25{fill:#f5f5a1;}.cls-26{fill:#ababab;}.cls-27{fill:#e6e6e6;}.cls-28{fill:url(#New_Gradient_Swatch_147-4);}.cls-29{fill:url(#New_Gradient_Swatch_148-3);}.cls-30{fill:url(#New_Gradient_Swatch_147-5);}</style><linearGradient id="New_Gradient_Swatch_147" x1="34.97" y1="2.32" x2="34.97" y2="0.33" gradientTransform="matrix(1, 0, 0, -1, 0, 2.73)" gradientUnits="userSpaceOnUse"><stop offset="0" stop-color="#204954"/><stop offset="1" stop-color="#1b3840"/></linearGradient><linearGradient id="New_Gradient_Swatch_147-2" x1="74.72" y1="2.32" x2="74.72" y2="0.33" xlink:href="#New_Gradient_Swatch_147"/><linearGradient id="New_Gradient_Swatch_147-3" x1="54.84" y1="2.73" x2="54.84" y2="0.33" xlink:href="#New_Gradient_Swatch_147"/><linearGradient id="linear-gradient" x1="54.85" y1="2.73" x2="54.85" y2="0.5" gradientTransform="matrix(1, 0, 0, -1, 0, 2.73)" gradientUnits="userSpaceOnUse"><stop offset="0" stop-color="#204270"/><stop offset="1" stop-color="#335d94"/></linearGradient><linearGradient id="linear-gradient-2" x1="54.84" y1="0.5" x2="54.84" gradientTransform="matrix(1, 0, 0, -1, 0, 2.73)" gradientUnits="userSpaceOnUse"><stop offset="0" stop-color="#87b5f5"/><stop offset="1" stop-color="#4e76a6"/></linearGradient><linearGradient id="New_Gradient_Swatch_148" x1="54.84" y1="2.06" x2="54.84" y2="1.01" gradientTransform="matrix(1, 0, 0, -1, 0, 2.73)" gradientUnits="userSpaceOnUse"><stop offset="0" stop-color="#6287c9"/><stop offset="1" stop-color="#3b597d"/></linearGradient><radialGradient id="radial-gradient" cx="54.84" cy="1.53" r="3.88" gradientTransform="matrix(1, 0, 0, -1, 0, 2.73)" gradientUnits="userSpaceOnUse"><stop offset="0" stop-color="#f8fc86"/><stop offset="1" stop-color="#edce20"/></radialGradient><radialGradient id="radial-gradient-2" cx="54.84" cy="1.53" r="3.43" gradientTransform="matrix(1, 0, 0, -1, 0, 2.73)" gradientUnits="userSpaceOnUse"><stop offset="0" stop-color="#efff57"/><stop offset="1"/></radialGradient><radialGradient id="radial-gradient-3" cx="54.84" cy="1.53" r="3.25" gradientTransform="matrix(1, 0, 0, -1, 0, 2.73)" gradientUnits="userSpaceOnUse"><stop offset="0" stop-color="#feffcb"/><stop offset="1"/></radialGradient><linearGradient id="linear-gradient-3" x1="51.07" y1="2.06" x2="51.07" y2="1.01" gradientTransform="matrix(1, 0, 0, -1, 0, 2.73)" gradientUnits="userSpaceOnUse"><stop offset="0" stop-color="#739cb0"/><stop offset="1" stop-color="#476b96"/></linearGradient><linearGradient id="linear-gradient-4" x1="54.84" y1="2.06" x2="54.84" y2="1.8" gradientTransform="matrix(1, 0, 0, -1, 0, 2.73)" gradientUnits="userSpaceOnUse"><stop offset="0" stop-color="#99b2bf"/><stop offset="1" stop-color="#9bbd67"/></linearGradient><linearGradient id="linear-gradient-5" x1="54.84" y1="1.26" x2="54.84" y2="1.01" gradientTransform="matrix(1, 0, 0, -1, 0, 2.73)" gradientUnits="userSpaceOnUse"><stop offset="0" stop-color="#94885c"/><stop offset="1" stop-color="#2c507a"/></linearGradient><linearGradient id="linear-gradient-6" x1="58.61" y1="2.06" x2="58.61" y2="1.01" xlink:href="#linear-gradient-3"/><linearGradient id="linear-gradient-7" x1="46.44" y1="1.53" x2="50.24" y2="1.53" gradientTransform="matrix(1, 0, 0, -1, 0, 2.73)" gradientUnits="userSpaceOnUse"><stop offset="0.17" stop-color="#fff"/><stop offset="0.3" stop-color="#fafbfb"/><stop offset="0.43" stop-color="#edeef0"/><stop offset="0.58" stop-color="#d7d9dd"/><stop offset="0.72" stop-color="#b8bcc3"/><stop offset="0.87" stop-color="#9196a2"/><stop offset="1" stop-color="#687080"/></linearGradient><linearGradient id="linear-gradient-8" x1="59.44" y1="1.53" x2="63.24" y2="1.53" gradientTransform="matrix(1, 0, 0, -1, 0, 2.73)" gradientUnits="userSpaceOnUse"><stop offset="0" stop-color="#687080"/><stop offset="0.13" stop-color="#9196a2"/><stop offset="0.28" stop-color="#b8bcc3"/><stop offset="0.42" stop-color="#d7d9dd"/><stop offset="0.57" stop-color="#edeef0"/><stop offset="0.7" stop-color="#fafbfb"/><stop offset="0.83" stop-color="#fff"/></linearGradient><linearGradient id="linear-gradient-9" x1="46.44" y1="1.13" x2="49.63" y2="1.13" gradientTransform="matrix(1, 0, 0, -1, 0, 2.73)" gradientUnits="userSpaceOnUse"><stop offset="0" stop-color="#fff"/><stop offset="1" stop-color="#adc9d9"/></linearGradient><linearGradient id="linear-gradient-10" x1="47.05" y1="1.93" x2="50.24" y2="1.93" gradientTransform="matrix(1, 0, 0, -1, 0, 2.73)" gradientUnits="userSpaceOnUse"><stop offset="0"/><stop offset="1" stop-color="#56788a"/></linearGradient><linearGradient id="linear-gradient-11" x1="49.86" y1="2.06" x2="49.86" y2="1.01" gradientTransform="matrix(1, 0, 0, -1, 0, 2.73)" gradientUnits="userSpaceOnUse"><stop offset="0" stop-color="#3a6278"/><stop offset="1" stop-color="#273361"/></linearGradient><linearGradient id="linear-gradient-12" x1="60.05" y1="1.13" x2="63.24" y2="1.13" gradientTransform="matrix(1, 0, 0, -1, 0, 2.73)" gradientUnits="userSpaceOnUse"><stop offset="0" stop-color="#adc9d9"/><stop offset="1" stop-color="#fff"/></linearGradient><linearGradient id="linear-gradient-13" x1="59.44" y1="1.93" x2="62.63" y2="1.93" gradientTransform="matrix(1, 0, 0, -1, 0, 2.73)" gradientUnits="userSpaceOnUse"><stop offset="0" stop-color="#56788a"/><stop offset="1"/></linearGradient><linearGradient id="linear-gradient-14" x1="59.82" y1="2.06" x2="59.82" y2="1.01" xlink:href="#linear-gradient-11"/><linearGradient id="New_Gradient_Swatch_148-2" x1="74.72" y1="1.85" x2="74.72" y2="0.83" xlink:href="#New_Gradient_Swatch_148"/><linearGradient id="New_Gradient_Swatch_147-4" x1="72.47" y1="0.96" x2="76.97" y2="0.96" xlink:href="#New_Gradient_Swatch_147"/><linearGradient id="New_Gradient_Swatch_148-3" x1="34.97" y1="1.85" x2="34.97" y2="0.83" xlink:href="#New_Gradient_Swatch_148"/><linearGradient id="New_Gradient_Swatch_147-5" x1="32.72" y1="0.96" x2="37.22" y2="0.96" xlink:href="#New_Gradient_Swatch_147"/></defs><g class="cls-1"><g id="Layer_2" data-name="Layer 2"><g id="Layer_1-2" data-name="Layer 1"><polygon class="cls-2" points="29.87 2.41 40.06 2.41 38.3 0.42 31.42 0.78 29.87 2.41 29.87 2.41"/><polygon class="cls-3" points="79.81 2.41 69.63 2.41 71.38 0.42 78.27 0.78 79.81 2.41 79.81 2.41"/><polygon class="cls-4" points="44.6 2.41 65.08 2.41 62.96 0 46.73 0 44.6 2.41 44.6 2.41"/><polygon class="cls-5" points="20.02 2.03 25.03 2.03 25.03 1.78 20.02 1.78 20.02 2.03 20.02 2.03"/><polygon class="cls-5" points="84.66 2.03 89.66 2.03 89.66 1.78 84.66 1.78 84.66 2.03 84.66 2.03"/><polyline class="cls-6" points="0.43 2.23 0.86 1.73 20.02 1.73 20.27 1.98 24.77 1.98 25.03 1.73 30.87 1.73 31.42 0.78 38.3 0.42 39.06 1.73 45.72 1.73 46.73 0 62.96 0 63.96 1.73 70.62 1.73 71.38 0.42 78.27 0.78 78.82 1.73 84.66 1.73 84.91 1.98 89.41 1.98 89.66 1.73 108.87 1.73 109.27 2.23"/><polygon class="cls-7" points="0.61 2.23 109.27 2.23 109.68 2.73 0 2.73 0.43 2.23 0.61 2.23"/><polygon class="cls-8" points="50.7 1.73 58.99 1.73 58.38 0.68 51.31 0.68 50.7 1.73 50.7 1.73"/><polygon class="cls-9" points="51.13 1.48 58.55 1.48 58.23 0.93 51.45 0.93 51.13 1.48 51.13 1.48"/><path class="cls-10" d="M51.53,1.35h6.62a.11.11,0,0,0,.09-.05.09.09,0,0,0,0-.1l0-.05a.16.16,0,0,0-.15-.09H51.62a.18.18,0,0,0-.15.09l0,.05a.09.09,0,0,0,0,.1.11.11,0,0,0,.09.05Z"/><path class="cls-11" d="M51.57,1.22H58.1s0,0,0,0H51.62a.05.05,0,0,0,0,0Z"/><polygon class="cls-12" points="51.13 1.48 51.45 0.93 51.31 0.68 50.7 1.73 51.13 1.48 51.13 1.48"/><polygon class="cls-13" points="51.45 0.93 54.84 0.93 58.23 0.93 58.38 0.68 54.84 0.68 51.31 0.68 51.45 0.93 51.45 0.93"/><polygon class="cls-14" points="58.99 1.73 58.55 1.48 54.84 1.48 51.13 1.48 50.7 1.73 54.84 1.73 58.99 1.73 58.99 1.73"/><polygon class="cls-15" points="58.55 1.48 58.99 1.73 58.38 0.68 58.23 0.93 58.55 1.48 58.55 1.48"/><polygon class="cls-16" points="47.05 0.68 50.24 0.68 49.63 1.73 46.44 1.73 47.05 0.68 47.05 0.68"/><polygon class="cls-17" points="62.63 0.68 59.44 0.68 60.05 1.73 63.24 1.73 62.63 0.68 62.63 0.68"/><polygon class="cls-18" points="46.44 1.73 49.48 1.48 49.63 1.73 46.44 1.73 46.44 1.73"/><polygon class="cls-19" points="49.8 0.93 50.24 0.68 47.05 0.68 49.8 0.93 49.8 0.93"/><polygon class="cls-20" points="49.8 0.93 49.48 1.48 49.63 1.73 50.24 0.68 49.8 0.93 49.8 0.93"/><polygon class="cls-21" points="63.24 1.73 60.2 1.48 60.05 1.73 63.24 1.73 63.24 1.73"/><polygon class="cls-22" points="59.88 0.93 59.44 0.68 62.63 0.68 59.88 0.93 59.88 0.93"/><polygon class="cls-23" points="59.88 0.93 60.2 1.48 60.05 1.73 59.44 0.68 59.88 0.93 59.88 0.93"/><polygon class="cls-24" points="73.06 0.89 72.47 1.9 76.97 1.9 76.48 1.07 73.06 0.89 73.06 0.89"/><polygon class="cls-5" points="73.2 1.15 72.91 1.65 76.53 1.65 76.33 1.31 73.2 1.15 73.2 1.15"/><polygon class="cls-25" points="73.27 1.28 73.13 1.52 76.31 1.52 76.26 1.43 73.27 1.28 73.27 1.28"/><polygon class="cls-26" points="76.48 1.07 76.33 1.31 76.53 1.65 76.97 1.9 76.48 1.07 76.48 1.07"/><polygon class="cls-26" points="73.2 1.15 73.06 0.89 72.47 1.9 72.91 1.65 73.2 1.15 73.2 1.15"/><polygon class="cls-27" points="73.06 0.89 73.2 1.15 76.33 1.31 76.48 1.07 73.06 0.89 73.06 0.89"/><polygon class="cls-28" points="76.53 1.65 72.91 1.65 72.47 1.9 76.97 1.9 76.53 1.65 76.53 1.65"/><polygon class="cls-29" points="36.62 0.89 37.22 1.9 32.72 1.9 33.2 1.07 36.62 0.89 36.62 0.89"/><polygon class="cls-5" points="36.48 1.15 36.78 1.65 33.15 1.65 33.35 1.31 36.48 1.15 36.48 1.15"/><polygon class="cls-25" points="36.41 1.28 33.43 1.43 33.37 1.52 36.56 1.52 36.41 1.28 36.41 1.28"/><polygon class="cls-26" points="33.2 1.07 33.35 1.31 33.15 1.65 32.72 1.9 33.2 1.07 33.2 1.07"/><polygon class="cls-26" points="36.48 1.15 36.62 0.89 37.22 1.9 36.78 1.65 36.48 1.15 36.48 1.15"/><polygon class="cls-27" points="36.62 0.89 36.48 1.15 33.35 1.31 33.2 1.07 36.62 0.89 36.62 0.89"/><polygon class="cls-30" points="33.15 1.65 36.78 1.65 37.22 1.9 32.72 1.9 33.15 1.65 33.15 1.65"/></g></g></g></svg>