<svg xmlns="http://www.w3.org/2000/svg" xmlns:xlink="http://www.w3.org/1999/xlink" viewBox="0 0 62.58 7.46"><defs><style>.cls-1{isolation:isolate;}.cls-10,.cls-11,.cls-12,.cls-13,.cls-14,.cls-15,.cls-18,.cls-19,.cls-2,.cls-20,.cls-21,.cls-3,.cls-4,.cls-5,.cls-6,.cls-7,.cls-8,.cls-9{fill-rule:evenodd;}.cls-2{fill:url(#linear-gradient);}.cls-3{fill:url(#linear-gradient-2);}.cls-10,.cls-4,.cls-5,.cls-7{mix-blend-mode:multiply;}.cls-4{fill:url(#linear-gradient-3);}.cls-5{fill:url(#linear-gradient-4);}.cls-14,.cls-15,.cls-16,.cls-17,.cls-22,.cls-6,.cls-9{mix-blend-mode:screen;}.cls-6{fill:url(#linear-gradient-5);}.cls-7{fill:url(#linear-gradient-6);}.cls-8{fill:url(#linear-gradient-7);}.cls-9{fill:url(#linear-gradient-8);}.cls-10{fill:url(#linear-gradient-9);}.cls-11{fill:url(#linear-gradient-10);}.cls-12{fill:#999;}.cls-13{fill:url(#linear-gradient-11);}.cls-14{fill:url(#linear-gradient-12);}.cls-15{fill:url(#linear-gradient-13);}.cls-16{fill:url(#linear-gradient-14);}.cls-17{fill:url(#linear-gradient-15);}.cls-18{fill:url(#linear-gradient-16);}.cls-19{fill:url(#linear-gradient-17);}.cls-20{fill:url(#linear-gradient-18);}.cls-21{fill:url(#linear-gradient-19);}.cls-22{fill:url(#radial-gradient);}</style><linearGradient id="linear-gradient" x1="31.29" y1="-18.04" x2="31.29" y2="-25.5" gradientTransform="matrix(1, 0, 0, -1, 0, -18.04)" gradientUnits="userSpaceOnUse"><stop offset="0" stop-color="#273f5e"/><stop offset="1" stop-color="#4e688c"/></linearGradient><linearGradient id="linear-gradient-2" x1="31.29" y1="-18.04" x2="31.29" y2="-25.5" gradientTransform="matrix(1, 0, 0, -1, 0, -18.04)" gradientUnits="userSpaceOnUse"><stop offset="0" stop-color="#335d94"/><stop offset="1" stop-color="#87b5f5"/></linearGradient><linearGradient id="linear-gradient-3" x1="5.7" y1="-21.77" x2="12.53" y2="-21.77" gradientTransform="matrix(1, 0, 0, -1, 0, -18.04)" gradientUnits="userSpaceOnUse"><stop offset="0.17" stop-color="#fff"/><stop offset="0.3" stop-color="#fafbfb"/><stop offset="0.43" stop-color="#edeef0"/><stop offset="0.58" stop-color="#d7d9dd"/><stop offset="0.72" stop-color="#b8bcc3"/><stop offset="0.87" stop-color="#9196a2"/><stop offset="1" stop-color="#687080"/></linearGradient><linearGradient id="linear-gradient-4" x1="50.05" y1="-21.77" x2="56.87" y2="-21.77" gradientTransform="matrix(1, 0, 0, -1, 0, -18.04)" gradientUnits="userSpaceOnUse"><stop offset="0" stop-color="#687080"/><stop offset="0.13" stop-color="#9196a2"/><stop offset="0.28" stop-color="#b8bcc3"/><stop offset="0.42" stop-color="#d7d9dd"/><stop offset="0.57" stop-color="#edeef0"/><stop offset="0.7" stop-color="#fafbfb"/><stop offset="0.83" stop-color="#fff"/></linearGradient><linearGradient id="linear-gradient-5" x1="5.7" y1="-20.54" x2="10.64" y2="-20.54" gradientTransform="matrix(1, 0, 0, -1, 0, -18.04)" gradientUnits="userSpaceOnUse"><stop offset="0"/><stop offset="1" stop-color="#56788a"/></linearGradient><linearGradient id="linear-gradient-6" x1="7.59" y1="-23" x2="12.53" y2="-23" gradientTransform="matrix(1, 0, 0, -1, 0, -18.04)" gradientUnits="userSpaceOnUse"><stop offset="0" stop-color="#fff"/><stop offset="1" stop-color="#adc9d9"/></linearGradient><linearGradient id="linear-gradient-7" x1="11.36" y1="-20.14" x2="11.36" y2="-23.39" gradientTransform="matrix(1, 0, 0, -1, 0, -18.04)" gradientUnits="userSpaceOnUse"><stop offset="0" stop-color="#739cb0"/><stop offset="1" stop-color="#476b96"/></linearGradient><linearGradient id="linear-gradient-8" x1="51.94" y1="-20.54" x2="56.87" y2="-20.54" gradientTransform="matrix(1, 0, 0, -1, 0, -18.04)" gradientUnits="userSpaceOnUse"><stop offset="0" stop-color="#56788a"/><stop offset="1"/></linearGradient><linearGradient id="linear-gradient-9" x1="50.05" y1="-23" x2="54.98" y2="-23" gradientTransform="matrix(1, 0, 0, -1, 0, -18.04)" gradientUnits="userSpaceOnUse"><stop offset="0" stop-color="#adc9d9"/><stop offset="1" stop-color="#fff"/></linearGradient><linearGradient id="linear-gradient-10" x1="51.22" y1="-20.14" x2="51.22" y2="-23.39" xlink:href="#linear-gradient-7"/><linearGradient id="linear-gradient-11" x1="31.29" y1="-19.27" x2="31.29" y2="-24.27" gradientTransform="matrix(1, 0, 0, -1, 0, -18.04)" gradientUnits="userSpaceOnUse"><stop offset="0" stop-color="#004dca"/><stop offset="0.01" stop-color="#004bc0"/><stop offset="0.09" stop-color="#004392"/><stop offset="0.16" stop-color="#003c70"/><stop offset="0.21" stop-color="#00385b"/><stop offset="0.25" stop-color="#003754"/><stop offset="0.36" stop-color="#003859"/><stop offset="0.5" stop-color="#003b69"/><stop offset="0.65" stop-color="#004083"/><stop offset="0.81" stop-color="#0046a6"/><stop offset="0.98" stop-color="#004fd4"/><stop offset="1" stop-color="#0050db"/></linearGradient><linearGradient id="linear-gradient-12" x1="31.29" y1="-23.36" x2="31.29" y2="-24.12" gradientTransform="matrix(1, 0, 0, -1, 0, -18.04)" gradientUnits="userSpaceOnUse"><stop offset="0"/><stop offset="1" stop-color="#1068ff"/></linearGradient><linearGradient id="linear-gradient-13" x1="31.29" y1="-19.42" x2="31.29" y2="-19.96" gradientTransform="matrix(1, 0, 0, -1, 0, -18.04)" gradientUnits="userSpaceOnUse"><stop offset="0" stop-color="#1068ff"/><stop offset="1"/></linearGradient><linearGradient id="linear-gradient-14" x1="12.66" y1="-21.76" x2="19.99" y2="-21.76" gradientTransform="matrix(1, 0, 0, -1, 0, -18.04)" gradientUnits="userSpaceOnUse"><stop offset="0" stop-color="#0098cf"/><stop offset="1"/></linearGradient><linearGradient id="linear-gradient-15" x1="42.58" y1="-21.76" x2="49.92" y2="-21.76" gradientTransform="matrix(1, 0, 0, -1, 0, -18.04)" gradientUnits="userSpaceOnUse"><stop offset="0"/><stop offset="1" stop-color="#0098cf"/></linearGradient><linearGradient id="linear-gradient-16" x1="31.28" y1="-18.65" x2="31.28" y2="-19.27" gradientTransform="matrix(1, 0, 0, -1, 0, -18.04)" gradientUnits="userSpaceOnUse"><stop offset="0" stop-color="#adc9d9"/><stop offset="1" stop-color="#4597ed"/></linearGradient><linearGradient id="linear-gradient-17" x1="49" y1="-18.92" x2="49" y2="-24.75" xlink:href="#linear-gradient-7"/><linearGradient id="linear-gradient-18" x1="31.29" y1="-24.21" x2="31.29" y2="-24.89" gradientTransform="matrix(1, 0, 0, -1, 0, -18.04)" gradientUnits="userSpaceOnUse"><stop offset="0" stop-color="#4680b0"/><stop offset="1" stop-color="#2c507a"/></linearGradient><linearGradient id="linear-gradient-19" x1="13.58" y1="-18.96" x2="13.58" y2="-24.75" xlink:href="#linear-gradient-7"/><radialGradient id="radial-gradient" cx="52.26" cy="-2403.14" r="23.11" gradientTransform="matrix(0.82, 0, 0, -0.02, -11.27, -48.71)" gradientUnits="userSpaceOnUse"><stop offset="0" stop-color="#00eaff"/><stop offset="0.13" stop-color="#00bdce"/><stop offset="0.31" stop-color="#008490"/><stop offset="0.48" stop-color="#00555d"/><stop offset="0.64" stop-color="#003034"/><stop offset="0.78" stop-color="#001618"/><stop offset="0.91" stop-color="#000606"/><stop offset="1"/></radialGradient></defs><g class="cls-1"><g id="Layer_2" data-name="Layer 2"><g id="Layer_1-2" data-name="Layer 1"><path class="cls-2" d="M0,0H62.58L56.73,6.63a2.36,2.36,0,0,1-1.84.83H7.69a2.4,2.4,0,0,1-1.85-.83L0,0Z"/><path class="cls-3" d="M60.34,0H0L.54.61h.64A2.4,2.4,0,0,1,3.3,1.83L6,6.54a1.8,1.8,0,0,0,1.6.92h47.3a1.79,1.79,0,0,0,1.59-.92l2.74-4.71A2.43,2.43,0,0,1,61.4.61H62L62.58,0"/><polygon class="cls-4" points="7.59 5.36 12.53 5.36 10.64 2.1 5.7 2.1 7.59 5.36 7.59 5.36"/><polygon class="cls-5" points="54.98 5.36 50.05 5.36 51.94 2.1 56.87 2.1 54.98 5.36 54.98 5.36"/><polygon class="cls-6" points="5.7 2.1 10.19 2.89 10.64 2.1 5.7 2.1 5.7 2.1"/><polygon class="cls-7" points="11.17 4.57 12.53 5.36 7.59 5.36 11.17 4.57 11.17 4.57"/><polygon class="cls-8" points="11.17 4.57 10.19 2.89 10.64 2.1 12.53 5.36 11.17 4.57 11.17 4.57"/><polygon class="cls-9" points="56.88 2.1 52.39 2.89 51.94 2.1 56.88 2.1 56.88 2.1"/><polygon class="cls-10" points="51.41 4.57 50.05 5.36 54.98 5.36 51.41 4.57 51.41 4.57"/><polygon class="cls-11" points="51.41 4.57 52.39 2.89 51.94 2.1 50.05 5.36 51.41 4.57 51.41 4.57"/><path class="cls-12" d="M14.66,6.31,11.88,1.54a.62.62,0,0,1,0-.62.61.61,0,0,1,.53-.31H50.16a.6.6,0,0,1,.53.31.58.58,0,0,1,0,.62L47.91,6.31a1.15,1.15,0,0,1-.39.4,1.09,1.09,0,0,1-.54.14H15.59a1.11,1.11,0,0,1-.54-.14,1.24,1.24,0,0,1-.39-.4Z"/><path class="cls-13" d="M12.41,1.23H50.16L47.38,6a.44.44,0,0,1-.4.23H15.59a.44.44,0,0,1-.23-.06A.46.46,0,0,1,15.19,6L12.41,1.23Z"/><path class="cls-14" d="M47.6,5.32l-.35.6a.29.29,0,0,1-.27.16H15.59a.26.26,0,0,1-.15,0,.25.25,0,0,1-.11-.12L15,5.32Z"/><path class="cls-15" d="M12.68,1.38H49.89c-.42.72-36.79.72-37.21,0Z"/><path class="cls-16" d="M15.08,5.8l4.91,0-4.94,0,0,0Zm-.27-.45,5.18,0-5.21,0,0,0Zm-.26-.46,5.44,0-5.47,0,0,0Zm-.27-.45,5.71,0-5.74,0,0,.06ZM14,4l6,0-6,0,0,0Zm-.26-.45L20,3.5l-6.27,0,0,.06Zm-.27-.45,6.5,0L13.46,3l0,.06Zm-.26-.46,6.76,0-6.8,0,0,.06ZM13,2.17l7,0-7.07,0,0,.07Zm-.26-.45,7.29,0-7.33,0,0,.07Z"/><path class="cls-17" d="M47.5,5.8l-4.92,0,5,0,0,0Zm.26-.45-5.18,0,5.21,0,0,0ZM48,4.89l-5.45,0,5.48,0,0,0Zm.26-.45-5.71,0,5.74,0,0,.06ZM48.56,4l-6,0,6,0,0,0Zm.26-.45-6.24,0,6.27,0,0,.06Zm.26-.45-6.5,0,6.54,0,0,.06Zm.27-.46-6.77,0,6.81,0,0,.06Zm.26-.45-7,0,7.07,0,0,.07Zm.27-.45-7.3,0,7.34,0,0,.07Z"/><path class="cls-18" d="M50.67.88l-.51.35H12.41L11.88.92a.61.61,0,0,1,.53-.31H50.16a.61.61,0,0,1,.51.27Z"/><path class="cls-19" d="M50.16,1.23l.51-.35a.08.08,0,0,1,0,0,.58.58,0,0,1,0,.62L47.91,6.31a1.15,1.15,0,0,1-.39.4l-.3-.54A.44.44,0,0,0,47.38,6l.12-.2,0,0,.23-.4,0,0L48,4.89l0,0,.23-.4,0-.06.24-.4,0,0,.23-.4,0-.06.23-.39,0-.06.23-.4,0-.06.22-.39,0-.07.23-.38,0-.07.24-.42Z"/><path class="cls-20" d="M15.59,6.23H47a.48.48,0,0,0,.24-.06l.3.54a1.09,1.09,0,0,1-.54.14H15.59a1.11,1.11,0,0,1-.54-.14l.31-.54a.44.44,0,0,0,.23.06Z"/><path class="cls-21" d="M14.81,5.35l.24.4,0,0,.11.2a.46.46,0,0,0,.17.17l-.31.54a1.24,1.24,0,0,1-.39-.4L11.88,1.54a.62.62,0,0,1,0-.62l.53.31.25.42,0,.07.22.38,0,.07.23.39,0,.06.23.4,0,.06.23.39,0,.06.23.4,0,0,.23.4,0,.06.24.4,0,0,.23.41,0,0Z"/><ellipse class="cls-22" cx="31.32" cy="6.08" rx="18.83" ry="0.53"/></g></g></g></svg>