<svg xmlns="http://www.w3.org/2000/svg" xmlns:xlink="http://www.w3.org/1999/xlink" viewBox="0 0 16.94 16.95"><defs><style>.cls-1{isolation:isolate;}.cls-2{fill:#0c2738;}.cls-2,.cls-3,.cls-4,.cls-5,.cls-6,.cls-7{fill-rule:evenodd;}.cls-3{fill:url(#linear-gradient);}.cls-4{fill:url(#New_Gradient_Swatch_141);}.cls-5{fill:url(#linear-gradient-2);}.cls-6{fill:#1d71b8;mix-blend-mode:screen;}.cls-7{fill:url(#New_Gradient_Swatch_142);}.cls-8{fill:#fff;}</style><linearGradient id="linear-gradient" x1="8.47" y1="16.03" x2="8.47" y2="0.92" gradientUnits="userSpaceOnUse"><stop offset="0" stop-color="#3a587d"/><stop offset="1" stop-color="#87b5f5"/></linearGradient><linearGradient id="New_Gradient_Swatch_141" x1="8.47" y1="16.03" x2="8.47" y2="0.92" gradientUnits="userSpaceOnUse"><stop offset="0" stop-color="#87b5f5"/><stop offset="1" stop-color="#3a587d"/></linearGradient><linearGradient id="linear-gradient-2" x1="8.47" y1="15.11" x2="8.47" y2="1.83" gradientUnits="userSpaceOnUse"><stop offset="0" stop-color="#00164f"/><stop offset="0.02" stop-color="#001752"/><stop offset="0.46" stop-color="#04257b"/><stop offset="0.8" stop-color="#062e95"/><stop offset="1" stop-color="#07319e"/></linearGradient><linearGradient id="New_Gradient_Swatch_142" x1="8.47" y1="14.28" x2="8.47" y2="2.66" gradientUnits="userSpaceOnUse"><stop offset="0" stop-color="#001e6b"/><stop offset="1" stop-color="#0056bf"/></linearGradient></defs><g class="cls-1"><g id="Layer_2" data-name="Layer 2"><g id="Layer_1-2" data-name="Layer 1"><path class="cls-2" d="M8.47.92A7.56,7.56,0,1,1,.92,8.47,7.55,7.55,0,0,1,8.47.92Z"/><path class="cls-3" d="M8.47.92A7.56,7.56,0,1,1,.92,8.47,7.55,7.55,0,0,1,8.47.92Zm8.47,7.55A8.47,8.47,0,1,0,8.47,17a8.47,8.47,0,0,0,8.47-8.48Z"/><path class="cls-4" d="M16,8.47A7.56,7.56,0,1,0,8.47,16,7.55,7.55,0,0,0,16,8.47ZM8.47,1.83A6.64,6.64,0,1,1,1.83,8.47,6.64,6.64,0,0,1,8.47,1.83Z"/><path class="cls-5" d="M8.47,1.83A6.64,6.64,0,1,1,1.83,8.47,6.64,6.64,0,0,1,8.47,1.83Z"/><path class="cls-6" d="M4.25,4.25a5.86,5.86,0,0,1,8.28.16,5.84,5.84,0,0,1,.16,8.28,5.84,5.84,0,0,1-8.28-.16,5.86,5.86,0,0,1-.16-8.28Z"/><path class="cls-7" d="M8.47,2.66A5.81,5.81,0,1,1,2.66,8.47,5.81,5.81,0,0,1,8.47,2.66Z"/><path class="cls-8" d="M6.41,6.08h.86a.24.24,0,0,0,.24-.24.23.23,0,0,0-.24-.24H5.84a.23.23,0,0,0-.24.24V7.27a.23.23,0,0,0,.24.24.24.24,0,0,0,.24-.24V6.41l1,1a.24.24,0,0,0,.35-.33h0Zm4.46.33v.86a.24.24,0,0,0,.48,0V5.84a.24.24,0,0,0-.24-.24H9.67a.24.24,0,0,0-.24.24.24.24,0,0,0,.24.24h.86l-1,1a.24.24,0,0,0,0,.34.23.23,0,0,0,.33,0h0ZM6.41,10.87h.86a.24.24,0,0,1,0,.48H5.84a.24.24,0,0,1-.24-.24V9.67a.24.24,0,0,1,.24-.24.24.24,0,0,1,.24.24v.86l1-1a.24.24,0,0,1,.34,0,.23.23,0,0,1,0,.33h0Zm4.46-.34V9.67a.24.24,0,0,1,.48,0v1.44a.24.24,0,0,1-.24.24H9.67a.24.24,0,0,1,0-.48h.86l-1-1a.24.24,0,0,1,0-.34.23.23,0,0,1,.33,0h0Z"/></g></g></g></svg>