<svg xmlns="http://www.w3.org/2000/svg" xmlns:xlink="http://www.w3.org/1999/xlink" viewBox="0 0 2257.34 1080"><defs><style>.cls-1{fill:none;}.cls-2{isolation:isolate;}.cls-3{fill:#3a0047;}.cls-14,.cls-20,.cls-24,.cls-26,.cls-38,.cls-4,.cls-40,.cls-59{fill:#fff;}.cls-4{opacity:0.2;}.cls-5{fill:#e0aea6;}.cls-6{fill:#f0c6bf;}.cls-13,.cls-29,.cls-7{fill:#f5d1ca;}.cls-8{fill:#ff9c7b;}.cls-9{fill:#ff7a41;}.cls-10{fill:#ff6a2f;}.cls-11{fill:#005d60;}.cls-12{fill:#004e52;}.cls-13,.cls-29,.cls-33{mix-blend-mode:multiply;}.cls-15{clip-path:url(#clip-path);}.cls-16,.cls-33{fill:#bcbec0;}.cls-17{fill:#cfd3d4;}.cls-18,.cls-35,.cls-39{opacity:0.3;}.cls-18,.cls-25,.cls-35{mix-blend-mode:screen;}.cls-19,.cls-25,.cls-35{fill:#ffbc6a;}.cls-20{opacity:0.6;}.cls-21,.cls-27,.cls-28,.cls-39,.cls-52,.cls-64{fill:#ff9400;}.cls-22{fill:#00ace5;}.cls-23{fill:#ff1c40;}.cls-24,.cls-28{opacity:0.1;}.cls-25,.cls-38{opacity:0.4;}.cls-26{opacity:0.38;}.cls-27{opacity:0.05;}.cls-29{opacity:0.54;}.cls-30{fill:#a2a4a7;}.cls-31{fill:#ff1038;}.cls-32{fill:#eb0431;opacity:0.5;}.cls-34{fill:#ff8000;}.cls-36{fill:#9beefc;}.cls-37{fill:#ffb252;}.cls-40{font-size:20.52px;letter-spacing:0.01em;}.cls-40,.cls-52{font-family:Montserrat-Medium, Montserrat;font-weight:500;}.cls-41{letter-spacing:0em;}.cls-42{letter-spacing:0em;}.cls-43{letter-spacing:0.01em;}.cls-44{letter-spacing:0.13em;}.cls-45{letter-spacing:0.02em;}.cls-46{letter-spacing:0.01em;}.cls-47{letter-spacing:0em;}.cls-48{letter-spacing:0.13em;}.cls-49{letter-spacing:0.01em;}.cls-50{letter-spacing:0em;}.cls-51{letter-spacing:0.01em;}.cls-52{font-size:20.52px;letter-spacing:0.52em;}.cls-53{letter-spacing:0.51em;}.cls-54{letter-spacing:0.5em;}.cls-55{letter-spacing:0.52em;}.cls-56{letter-spacing:0.47em;}.cls-57{letter-spacing:0.5em;}.cls-58{letter-spacing:0.51em;}.cls-59{font-size:159.85px;}.cls-59,.cls-64{font-family:HennyPenny-Regular, Henny Penny;}.cls-60{letter-spacing:0.02em;}.cls-61{letter-spacing:-0.1em;}.cls-62{letter-spacing:-0.04em;}.cls-63{letter-spacing:0em;}.cls-64{font-size:101.88px;}.cls-65{letter-spacing:-0.1em;}.cls-66{letter-spacing:-0.06em;}.cls-67{letter-spacing:-0.06em;}</style><clipPath id="clip-path"><path class="cls-1" d="M1566.93,373.16c-139.78,0-253.49,113.72-253.49,253.5V910.75h507V626.66C1820.43,486.88,1706.71,373.16,1566.93,373.16Z"/></clipPath></defs><g class="cls-2"><g id="Layer_2" data-name="Layer 2"><g id="BACKGROUND"><rect class="cls-3" x="147.6" width="1920" height="1080"/></g><g id="OBJECTS"><rect class="cls-3" x="147.6" width="1920" height="1080"/><rect class="cls-4" x="104.7" y="204.38" width="111.5" height="48.63"/><rect class="cls-4" x="227.74" y="204.38" width="111.5" height="48.63"/><rect class="cls-4" x="44.04" y="263.58" width="111.51" height="48.63"/><rect class="cls-4" x="165.35" y="263.58" width="111.5" height="48.63"/><rect class="cls-4" x="809.2" y="931.91" width="111.5" height="48.63"/><rect class="cls-4" x="932.24" y="931.91" width="111.5" height="48.63"/><rect class="cls-4" x="748.54" y="991.11" width="111.5" height="48.63"/><rect class="cls-4" x="869.85" y="991.11" width="111.5" height="48.63"/><rect class="cls-4" x="2022.79" y="150.47" width="111.5" height="48.63"/><rect class="cls-4" x="2145.84" y="150.47" width="111.5" height="48.63"/><rect class="cls-4" x="1962.13" y="209.66" width="111.51" height="48.63"/><rect class="cls-4" x="2083.44" y="209.66" width="111.5" height="48.63"/><rect class="cls-4" x="60.66" y="854.15" width="111.5" height="48.63"/><rect class="cls-4" x="183.71" y="854.15" width="111.5" height="48.63"/><rect class="cls-4" y="913.35" width="111.51" height="48.63"/><rect class="cls-4" x="903.95" y="797.53" width="111.5" height="48.63"/><rect class="cls-4" x="637.03" y="145.21" width="111.51" height="48.63"/><rect class="cls-4" x="1616.66" y="204.38" width="111.5" height="48.63"/><rect class="cls-4" x="1717.96" y="1004.78" width="111.51" height="48.63"/><rect class="cls-4" x="121.31" y="913.35" width="111.5" height="48.63"/><rect class="cls-5" x="1262.99" y="324.99" width="607.89" height="174.87"/><rect class="cls-6" x="1226.04" y="359.21" width="681.78" height="209.87"/><rect class="cls-7" x="1186.23" y="394.92" width="164.08" height="515.83"/><rect class="cls-7" x="1783.55" y="394.92" width="164.09" height="515.83"/><path class="cls-8" d="M1566.93,373.16c-139.78,0-253.49,113.72-253.49,253.5V910.75h507V626.66C1820.43,486.88,1706.71,373.16,1566.93,373.16Z"/><polygon class="cls-8" points="1372.21 910.75 1307.31 910.75 1307.31 466.79 1372.21 386.51 1372.21 910.75"/><rect class="cls-9" x="1372.22" y="386.51" width="64.91" height="524.24"/><polygon class="cls-9" points="1566.93 910.75 1502.03 910.75 1502.03 341.71 1566.93 324.99 1566.93 910.75"/><polygon class="cls-10" points="1502.03 910.75 1437.12 910.75 1437.12 386.51 1502.03 341.71 1502.03 910.75"/><polygon class="cls-9" points="1696.74 910.75 1631.84 910.75 1631.84 320.09 1696.74 352.48 1696.74 910.75"/><rect class="cls-8" x="1696.74" y="380.4" width="64.9" height="530.35"/><rect class="cls-10" x="1761.65" y="432.75" width="64.91" height="478"/><polygon class="cls-10" points="1631.84 910.75 1566.93 910.75 1566.93 324.99 1631.84 321.64 1631.84 910.75"/><path class="cls-11" d="M1525.08,759.67a23.41,23.41,0,1,1,23.4-23.4A23.43,23.43,0,0,1,1525.08,759.67Zm0-41.57a18.17,18.17,0,1,0,18.17,18.17A18.19,18.19,0,0,0,1525.08,718.1Z"/><rect class="cls-12" x="1512.05" y="712.41" width="24.91" height="10.18"/><path class="cls-11" d="M1608.79,759.67a23.41,23.41,0,1,1,23.4-23.4A23.43,23.43,0,0,1,1608.79,759.67Zm0-41.57A18.17,18.17,0,1,0,1627,736.27,18.2,18.2,0,0,0,1608.79,718.1Z"/><rect class="cls-12" x="1595.76" y="712.41" width="24.91" height="10.18"/><path class="cls-13" d="M1566.93,353.35c-165,0-298.66,133.71-298.66,298.67V910.75h45.17v-260c0-127.92,125.58-232,253.49-232s253.5,104.07,253.5,232v260h45.17V652C1865.6,487.06,1731.88,353.35,1566.93,353.35Z"/><path class="cls-7" d="M1566.93,301.67c-180.24,0-326.35,146.12-326.35,326.36V910.75h72.86V626.66c0-139.78,113.71-253.5,253.49-253.5s253.5,113.72,253.5,253.5V910.75h72.86V628C1893.29,447.79,1747.17,301.67,1566.93,301.67Z"/><path class="cls-14" d="M1833,782.41a13.3,13.3,0,0,1,5.1-26.1"/><path class="cls-14" d="M1300.57,720.26a13.29,13.29,0,1,1-15.58,10.5"/><g class="cls-15"><path class="cls-16" d="M1124.26,785l-12.89,3.42,1.86,7,12.88-3.41a5,5,0,0,1,6.17,3.52l1.86,7a5,5,0,0,1-3.62,6.12l-12.88,3.41,1.85,7,12.87-3.41a12.34,12.34,0,0,0,8.89-15l-1.86-7A12.33,12.33,0,0,0,1124.26,785Z"/><path class="cls-16" d="M1173,797.38l-12.93,3.42a5,5,0,0,1-6.18-3.52l-1.85-7a5,5,0,0,1,3.62-6.12l12.92-3.42-1.84-7-12.93,3.42a12.33,12.33,0,0,0-8.88,15l1.85,7a12.34,12.34,0,0,0,15.15,8.63l12.92-3.42Z"/><path class="cls-17" d="M1168.63,789.64a4.9,4.9,0,0,1-3.52,6l-41.52,11a4.85,4.85,0,1,1-2.48-9.38l41.51-11A4.9,4.9,0,0,1,1168.63,789.64Z"/><g class="cls-18"><path class="cls-19" d="M1124.81,796.23l-5.59,9.44a5,5,0,0,0,4.37.92l6.78-1.81,7-11.89Zm15.16,6-6.53,1.73,7-11.89,6.53-1.73Zm14.36-3.8-10.59,2.8,7-11.89,10.59-2.81Z"/></g><path class="cls-16" d="M1179.64,770.33l-12.88,3.42,1.84,7,12.88-3.42a5,5,0,0,1,6.19,3.53l1.86,7a5,5,0,0,1-3.63,6.11L1173,797.38l1.85,7,12.89-3.41a12.35,12.35,0,0,0,8.87-15l-1.86-7A12.33,12.33,0,0,0,1179.64,770.33Z"/><path class="cls-16" d="M1228.4,782.7l-12.92,3.44a5,5,0,0,1-6.18-3.53l-1.86-7a5,5,0,0,1,3.63-6.11l12.92-3.42-1.86-7-12.92,3.43a12.32,12.32,0,0,0-8.87,15l1.85,7a12.34,12.34,0,0,0,15.14,8.63l12.92-3.42Z"/><path class="cls-17" d="M1224,775a4.89,4.89,0,0,1-3.52,5.95l-41.51,11a4.85,4.85,0,1,1-2.49-9.37l41.52-11A4.89,4.89,0,0,1,1224,775Z"/><g class="cls-18"><path class="cls-19" d="M1180.19,781.56,1174.6,791a5,5,0,0,0,4.37.91l6.78-1.8,7-11.89Zm15.16,6-6.53,1.73,7-11.9,6.52-1.72Zm14.37-3.8-10.6,2.8,7-11.89,10.6-2.81Z"/></g><path class="cls-16" d="M1235,755.66l-12.89,3.41,1.86,7,12.88-3.42a5,5,0,0,1,6.17,3.52l1.86,7a5,5,0,0,1-3.62,6.12l-12.88,3.41,1.85,7,12.89-3.41a12.34,12.34,0,0,0,8.87-15l-1.86-7A12.33,12.33,0,0,0,1235,755.66Z"/><path class="cls-16" d="M1283.78,768l-12.92,3.43a5,5,0,0,1-6.18-3.53l-1.85-7a5,5,0,0,1,3.62-6.12l12.92-3.42-1.85-7-12.93,3.43a12.31,12.31,0,0,0-8.86,15l1.85,7a12.32,12.32,0,0,0,15.13,8.63l12.93-3.43Z"/><path class="cls-17" d="M1279.39,760.29a4.89,4.89,0,0,1-3.52,6l-41.53,11a4.85,4.85,0,1,1-2.47-9.37l41.51-11A4.89,4.89,0,0,1,1279.39,760.29Z"/><g class="cls-18"><path class="cls-19" d="M1235.57,766.89l-5.58,9.44a5,5,0,0,0,4.35.91l6.79-1.8,7-11.89Zm15.16,6-6.53,1.73,7-11.9,6.54-1.73Zm14.37-3.81-10.6,2.81,7-11.9,10.59-2.8Z"/></g><path class="cls-16" d="M1290.4,741l-12.88,3.4,1.85,7,12.88-3.41a5,5,0,0,1,6.18,3.52l1.85,7a5,5,0,0,1-3.62,6.12L1283.78,768l1.86,7,12.88-3.41a12.33,12.33,0,0,0,8.87-15l-1.86-7A12.32,12.32,0,0,0,1290.4,741Z"/><path class="cls-16" d="M1339.16,753.36l-12.92,3.42a5,5,0,0,1-6.18-3.52l-1.86-7a5,5,0,0,1,3.62-6.12l12.94-3.42-1.86-7L1320,733.15a12.32,12.32,0,0,0-8.89,15l1.85,7a12.34,12.34,0,0,0,15.14,8.64l12.92-3.43Z"/><path class="cls-17" d="M1334.76,745.62a4.89,4.89,0,0,1-3.51,6l-41.52,11a4.85,4.85,0,1,1-2.49-9.37l41.52-11A4.89,4.89,0,0,1,1334.76,745.62Z"/><g class="cls-18"><path class="cls-19" d="M1291,752.21l-5.59,9.44a5,5,0,0,0,4.37.92l6.79-1.8,7-11.89Zm15.16,6-6.52,1.73,7-11.89,6.54-1.73Zm14.36-3.8-10.58,2.8,7-11.89,10.59-2.81Z"/></g><path class="cls-16" d="M1345.78,726.31l-12.88,3.41,1.86,7,12.87-3.42a5,5,0,0,1,6.18,3.52l1.85,7a5,5,0,0,1-3.62,6.11l-12.88,3.42,1.85,7,12.89-3.41a12.34,12.34,0,0,0,8.87-15l-1.86-7A12.33,12.33,0,0,0,1345.78,726.31Z"/><path class="cls-16" d="M1394.54,738.69l-12.92,3.42a5,5,0,0,1-6.17-3.52l-1.86-7a5,5,0,0,1,3.62-6.12l12.92-3.43-1.86-7-12.91,3.43a12.32,12.32,0,0,0-8.87,15l1.85,7a12.32,12.32,0,0,0,15.13,8.63l12.93-3.43Z"/><path class="cls-17" d="M1390.14,730.94a4.89,4.89,0,0,1-3.51,5.95l-41.52,11a4.85,4.85,0,1,1-2.48-9.37l41.51-11A4.88,4.88,0,0,1,1390.14,730.94Z"/><g class="cls-18"><path class="cls-19" d="M1346.33,737.54l-5.58,9.44a4.94,4.94,0,0,0,4.36.91l6.79-1.79,7-11.9Zm15.16,6-6.53,1.73,7-11.89,6.53-1.73Zm14.37-3.8-10.6,2.8,7-11.89,10.58-2.81Z"/></g><path class="cls-16" d="M1401.16,711.64l-12.89,3.41,1.86,7,12.88-3.41a5,5,0,0,1,6.18,3.52l1.86,7a5,5,0,0,1-3.63,6.12l-12.88,3.41,1.86,7,12.88-3.41a12.33,12.33,0,0,0,8.88-15l-1.87-7A12.32,12.32,0,0,0,1401.16,711.64Z"/><path class="cls-16" d="M1449.92,724,1437,727.44a5,5,0,0,1-6.16-3.53l-1.87-7a5,5,0,0,1,3.63-6.12l12.92-3.43-1.84-7-12.93,3.42a12.33,12.33,0,0,0-8.88,15l1.85,7a12.35,12.35,0,0,0,15.14,8.63l12.93-3.42Z"/><path class="cls-17" d="M1445.53,716.27a4.89,4.89,0,0,1-3.52,6l-41.52,11a4.85,4.85,0,1,1-2.49-9.37l41.52-11A4.89,4.89,0,0,1,1445.53,716.27Z"/><g class="cls-18"><path class="cls-19" d="M1401.71,722.87l-5.59,9.44a5,5,0,0,0,4.37.91l6.79-1.8,7-11.89Zm15.16,6-6.52,1.73,7-11.9,6.54-1.73Zm14.37-3.81-10.59,2.81,7-11.9,10.6-2.8Z"/></g><path class="cls-16" d="M1456.54,697l-12.87,3.41,1.84,7,12.88-3.4a5,5,0,0,1,6.18,3.52l1.86,7a5,5,0,0,1-3.62,6.12L1449.92,724l1.86,7,12.88-3.42a12.33,12.33,0,0,0,8.87-15l-1.86-7A12.31,12.31,0,0,0,1456.54,697Z"/><path class="cls-16" d="M1505.31,709.34l-12.93,3.42a5,5,0,0,1-6.17-3.52l-1.85-7a5,5,0,0,1,3.61-6.12l12.93-3.43-1.86-7-12.92,3.43a12.34,12.34,0,0,0-8.88,15l1.86,7a12.34,12.34,0,0,0,15.13,8.64l12.93-3.43Z"/><path class="cls-17" d="M1500.91,701.59a4.9,4.9,0,0,1-3.52,6l-41.52,11a4.85,4.85,0,1,1-2.48-9.37l41.52-11A4.89,4.89,0,0,1,1500.91,701.59Z"/><g class="cls-18"><path class="cls-19" d="M1457.1,708.19l-5.59,9.44a4.9,4.9,0,0,0,4.36.91l6.78-1.79,7-11.9Zm15.16,6-6.53,1.73,7-11.89,6.53-1.73Zm14.36-3.8-10.6,2.8,7-11.89,10.59-2.8Z"/></g><path class="cls-16" d="M1511.93,682.29,1499,685.7l1.86,7,12.87-3.41a5,5,0,0,1,6.18,3.53l1.85,7a5,5,0,0,1-3.62,6.12l-12.87,3.41,1.85,7,12.88-3.41a12.34,12.34,0,0,0,8.88-15l-1.86-7A12.33,12.33,0,0,0,1511.93,682.29Z"/><path class="cls-16" d="M1560.69,694.67l-12.93,3.42a5,5,0,0,1-6.17-3.52l-1.86-7a5,5,0,0,1,3.62-6.12l12.93-3.43-1.86-7-12.92,3.42a12.34,12.34,0,0,0-8.87,15l1.85,7a12.33,12.33,0,0,0,15.14,8.63l12.92-3.42Z"/><path class="cls-17" d="M1556.29,686.93a4.86,4.86,0,0,1-3.52,5.94l-41.51,11a4.84,4.84,0,1,1-2.49-9.36l41.52-11A4.89,4.89,0,0,1,1556.29,686.93Z"/><g class="cls-18"><path class="cls-19" d="M1512.48,693.52,1506.9,703a4.93,4.93,0,0,0,4.36.91l6.78-1.8,7-11.89Zm15.16,6-6.53,1.73,7-11.89,6.53-1.73Zm14.36-3.8-10.59,2.8,7-11.89,10.6-2.81Z"/></g><path class="cls-16" d="M1567.3,667.62,1554.42,671l1.86,7,12.89-3.41a5,5,0,0,1,6.17,3.52l1.85,7a5,5,0,0,1-3.62,6.11l-12.88,3.42,1.85,7,12.88-3.41a12.33,12.33,0,0,0,8.87-15l-1.85-7A12.33,12.33,0,0,0,1567.3,667.62Z"/><path class="cls-16" d="M1616.07,680l-12.93,3.42a5,5,0,0,1-6.17-3.51l-1.86-7a5,5,0,0,1,3.62-6.13l12.92-3.42-1.84-7-12.93,3.42a12.35,12.35,0,0,0-8.88,15l1.86,7a12.34,12.34,0,0,0,15.13,8.63l12.93-3.43Z"/><path class="cls-17" d="M1611.68,672.25a4.91,4.91,0,0,1-3.53,6l-41.52,11a4.85,4.85,0,1,1-2.48-9.37l41.52-11A4.89,4.89,0,0,1,1611.68,672.25Z"/><g class="cls-18"><path class="cls-19" d="M1567.86,678.84l-5.59,9.44a4.92,4.92,0,0,0,4.36.92l6.79-1.8,7-11.89Zm15.17,6-6.54,1.72,7-11.89,6.53-1.73Zm14.35-3.81-10.59,2.81,7-11.9,10.59-2.8Z"/></g><path class="cls-16" d="M1622.69,652.94l-12.88,3.42,1.84,7,12.89-3.42a5,5,0,0,1,6.18,3.53l1.85,7a5,5,0,0,1-3.62,6.12L1616.07,680l1.85,7,12.88-3.41a12.34,12.34,0,0,0,8.88-15l-1.86-7A12.33,12.33,0,0,0,1622.69,652.94Z"/><path class="cls-16" d="M1671.45,665.32l-12.92,3.42a5,5,0,0,1-6.18-3.52l-1.86-7a5,5,0,0,1,3.62-6.12l12.93-3.42-1.86-7-12.91,3.42a12.33,12.33,0,0,0-8.88,15l1.85,7a12.34,12.34,0,0,0,15.14,8.63l12.93-3.43Z"/><path class="cls-17" d="M1667.05,657.58a4.87,4.87,0,0,1-3.52,5.95l-41.51,11a4.84,4.84,0,1,1-2.49-9.36l41.52-11A4.87,4.87,0,0,1,1667.05,657.58Z"/><g class="cls-18"><path class="cls-19" d="M1623.24,664.17l-5.59,9.44a4.93,4.93,0,0,0,4.37.91l6.79-1.79,7-11.89Zm15.17,6-6.54,1.73,7.05-11.89,6.53-1.73Zm14.36-3.8-10.59,2.81,7-11.9,10.59-2.81Z"/></g><path class="cls-16" d="M1678.07,638.27l-12.89,3.42,1.86,7,12.88-3.42a5,5,0,0,1,6.18,3.53l1.85,7a5,5,0,0,1-3.62,6.12l-12.88,3.41,1.86,7,12.88-3.41a12.33,12.33,0,0,0,8.87-15l-1.86-7A12.33,12.33,0,0,0,1678.07,638.27Z"/><path class="cls-16" d="M1726.83,650.65l-12.93,3.42a5,5,0,0,1-6.17-3.52l-1.85-7a5,5,0,0,1,3.62-6.12l12.92-3.43-1.84-7-12.94,3.42a12.34,12.34,0,0,0-8.88,15l1.86,7a12.34,12.34,0,0,0,15.15,8.63l12.92-3.42Z"/><path class="cls-17" d="M1722.43,642.91a4.88,4.88,0,0,1-3.51,5.94l-41.52,11a4.85,4.85,0,1,1-2.49-9.37l41.52-11A4.88,4.88,0,0,1,1722.43,642.91Z"/><g class="cls-18"><path class="cls-19" d="M1678.62,649.5l-5.59,9.44a5,5,0,0,0,4.37.91l6.78-1.8,7-11.89Zm15.17,6-6.53,1.73,7-11.89,6.54-1.73Zm14.36-3.8-10.59,2.81,7-11.9,10.6-2.81Z"/></g><path class="cls-16" d="M1733.45,623.6,1720.58,627l1.84,7,12.88-3.41a5,5,0,0,1,6.17,3.52l1.87,7a5.05,5.05,0,0,1-3.62,6.12l-12.89,3.41,1.86,7,12.88-3.41a12.33,12.33,0,0,0,8.87-15l-1.86-7A12.33,12.33,0,0,0,1733.45,623.6Z"/><path class="cls-16" d="M1782.21,636l-12.92,3.43a5,5,0,0,1-6.18-3.53l-1.85-7a5,5,0,0,1,3.61-6.12l12.93-3.42-1.85-7L1763,615.77a12.32,12.32,0,0,0-8.88,15l1.86,7a12.32,12.32,0,0,0,15.13,8.63l12.93-3.42Z"/><path class="cls-17" d="M1777.81,628.23a4.87,4.87,0,0,1-3.52,5.95l-41.51,11a4.85,4.85,0,1,1-2.49-9.37l41.52-11A4.88,4.88,0,0,1,1777.81,628.23Z"/><g class="cls-18"><path class="cls-19" d="M1734,634.83l-5.59,9.43a4.9,4.9,0,0,0,4.36.92l6.78-1.8,7-11.89Zm15.16,6-6.53,1.73,7-11.9,6.52-1.73Zm14.36-3.8-10.59,2.8,7-11.89,10.59-2.81Z"/></g><path class="cls-16" d="M1788.83,608.93,1776,612.34l1.85,7,12.88-3.41a5,5,0,0,1,6.17,3.52l1.86,7a5,5,0,0,1-3.62,6.12L1782.21,636l1.86,7,12.88-3.42a12.32,12.32,0,0,0,8.87-15l-1.85-7A12.33,12.33,0,0,0,1788.83,608.93Z"/><path class="cls-16" d="M1837.59,621.3l-12.93,3.43a5,5,0,0,1-6.16-3.53l-1.87-7a5.05,5.05,0,0,1,3.63-6.12l12.92-3.43-1.85-7-12.92,3.43a12.32,12.32,0,0,0-8.87,15l1.85,7a12.34,12.34,0,0,0,15.14,8.64l12.91-3.43Z"/><path class="cls-17" d="M1833.2,613.56a4.9,4.9,0,0,1-3.52,6l-41.52,11a4.85,4.85,0,1,1-2.49-9.37l41.53-11A4.88,4.88,0,0,1,1833.2,613.56Z"/><g class="cls-18"><path class="cls-19" d="M1789.38,620.15l-5.58,9.44a5,5,0,0,0,4.36.92l6.78-1.8,7-11.9Zm15.16,6-6.52,1.72,7-11.89,6.53-1.73Zm14.37-3.81-10.59,2.81,7-11.9,10.59-2.81Z"/></g><path class="cls-16" d="M1844.21,594.26l-12.88,3.4,1.85,7,12.88-3.41a5,5,0,0,1,6.18,3.52l1.86,7a5,5,0,0,1-3.62,6.12l-12.89,3.41,1.85,7,12.88-3.41a12.33,12.33,0,0,0,8.88-15l-1.85-7A12.33,12.33,0,0,0,1844.21,594.26Z"/><path class="cls-16" d="M1893,606.63l-12.91,3.42a5,5,0,0,1-6.18-3.52l-1.87-7a5,5,0,0,1,3.63-6.12l12.92-3.43-1.84-7-12.93,3.43a12.32,12.32,0,0,0-8.87,15l1.85,7a12.31,12.31,0,0,0,15.12,8.63l12.94-3.42Z"/><path class="cls-17" d="M1888.58,598.88a4.89,4.89,0,0,1-3.52,6l-41.53,11a4.84,4.84,0,1,1-2.47-9.36l41.51-11A4.91,4.91,0,0,1,1888.58,598.88Z"/><g class="cls-18"><path class="cls-19" d="M1844.77,605.48l-5.59,9.44a4.93,4.93,0,0,0,4.35.91l6.8-1.79,7-11.9Zm15.16,6-6.53,1.73,7-11.89,6.53-1.73Zm14.36-3.8-10.59,2.8,7-11.89,10.59-2.81Z"/></g><path class="cls-16" d="M1899.6,579.58,1886.72,583l1.84,7,12.88-3.41a5.06,5.06,0,0,1,6.19,3.52l1.84,7a5,5,0,0,1-3.62,6.12L1893,606.63l1.86,7,12.88-3.41a12.34,12.34,0,0,0,8.88-15l-1.86-7A12.34,12.34,0,0,0,1899.6,579.58Z"/><path class="cls-16" d="M1948.36,592l-12.93,3.42a5,5,0,0,1-6.17-3.52l-1.86-7a5,5,0,0,1,3.62-6.12l12.94-3.42-1.86-7-12.93,3.42a12.33,12.33,0,0,0-8.87,15l1.85,7a12.34,12.34,0,0,0,15.14,8.63l12.92-3.42Z"/><path class="cls-17" d="M1944,584.22a4.88,4.88,0,0,1-3.52,5.94l-41.52,11a4.85,4.85,0,1,1-2.48-9.37l41.52-11A4.88,4.88,0,0,1,1944,584.22Z"/><g class="cls-18"><path class="cls-19" d="M1900.15,590.81l-5.59,9.43a4.92,4.92,0,0,0,4.36.92l6.8-1.79,7-11.91Zm15.16,6-6.53,1.73,7-11.89,6.53-1.73Zm14.36-3.81-10.59,2.81,7.05-11.9,10.58-2.8Z"/></g><path class="cls-16" d="M1205,536.69l-12.5-4.62-2.51,6.78,12.5,4.63a5,5,0,0,1,3,6.43l-2.51,6.8a5.05,5.05,0,0,1-6.48,2.92l-12.5-4.62-2.51,6.78,12.49,4.62a12.34,12.34,0,0,0,15.9-7.16l2.5-6.79A12.33,12.33,0,0,0,1205,536.69Z"/><path class="cls-16" d="M1237.81,574.87l-12.54-4.64a5,5,0,0,1-3-6.44l2.51-6.79a5,5,0,0,1,6.48-2.92l12.54,4.63,2.51-6.78-12.54-4.64a12.34,12.34,0,0,0-15.89,7.16l-2.51,6.79a12.35,12.35,0,0,0,7.42,15.78l12.54,4.63Z"/><path class="cls-17" d="M1238.67,566a4.89,4.89,0,0,1-6.3,2.83L1192.07,554a4.85,4.85,0,1,1,3.37-9.09l40.29,14.88A4.9,4.9,0,0,1,1238.67,566Z"/><g class="cls-18"><path class="cls-19" d="M1199,546.2l-10,4.5a5,5,0,0,0,3,3.26l6.59,2.43,12.6-5.68Zm8.93,13.63-6.33-2.34,12.6-5.68,6.34,2.35Zm13.94,5.15-10.27-3.8,12.6-5.68,10.27,3.8Z"/></g><path class="cls-16" d="M1258.78,556.55l-12.5-4.62-2.51,6.78,12.5,4.62a5,5,0,0,1,3,6.44l-2.51,6.79a5,5,0,0,1-6.48,2.92l-12.5-4.61-2.51,6.78,12.51,4.62a12.33,12.33,0,0,0,15.87-7.16l2.51-6.8A12.32,12.32,0,0,0,1258.78,556.55Z"/><path class="cls-16" d="M1291.55,594.72,1279,590.09a5,5,0,0,1-3-6.44l2.51-6.8a5,5,0,0,1,6.48-2.91l12.54,4.63,2.51-6.78-12.54-4.64a12.33,12.33,0,0,0-15.88,7.16l-2.52,6.79a12.35,12.35,0,0,0,7.42,15.77L1289,601.5Z"/><path class="cls-17" d="M1292.41,585.86a4.9,4.9,0,0,1-6.31,2.84l-40.28-14.89a4.85,4.85,0,1,1,3.36-9.09l40.28,14.89A4.88,4.88,0,0,1,1292.41,585.86Z"/><g class="cls-18"><path class="cls-19" d="M1252.78,566.05l-10,4.51a4.92,4.92,0,0,0,3,3.25l6.58,2.43,12.6-5.67Zm8.94,13.64-6.34-2.34,12.61-5.68,6.32,2.34Zm13.94,5.15-10.28-3.8,12.6-5.68,10.28,3.8Z"/></g><path class="cls-16" d="M1312.52,576.4l-12.5-4.61-2.51,6.78,12.5,4.62a5,5,0,0,1,3,6.43l-2.51,6.79a5,5,0,0,1-6.48,2.93l-12.5-4.62L1289,601.5l12.51,4.63a12.34,12.34,0,0,0,15.88-7.17l2.51-6.79A12.34,12.34,0,0,0,1312.52,576.4Z"/><path class="cls-16" d="M1345.29,614.58l-12.54-4.64a5,5,0,0,1-3-6.43l2.52-6.8a5,5,0,0,1,6.48-2.92l12.54,4.63,2.51-6.78L1341.22,587a12.32,12.32,0,0,0-15.88,7.16l-2.51,6.79a12.33,12.33,0,0,0,7.41,15.77l12.55,4.63Z"/><path class="cls-17" d="M1346.15,605.71a4.88,4.88,0,0,1-6.3,2.84l-40.29-14.89a4.84,4.84,0,1,1,3.36-9.08l40.28,14.88A4.89,4.89,0,0,1,1346.15,605.71Z"/><g class="cls-18"><path class="cls-19" d="M1306.51,585.9l-10,4.51a4.89,4.89,0,0,0,3,3.25l6.59,2.44,12.6-5.68Zm9,13.64-6.33-2.34,12.6-5.68,6.34,2.35Zm13.93,5.15-10.27-3.8,12.6-5.67L1342,599Z"/></g><path class="cls-16" d="M1366.26,596.25l-12.49-4.61-2.51,6.78,12.5,4.62a5,5,0,0,1,3,6.44l-2.51,6.79a5,5,0,0,1-6.48,2.92l-12.5-4.61-2.5,6.78,12.5,4.62a12.34,12.34,0,0,0,15.88-7.16l2.51-6.8A12.34,12.34,0,0,0,1366.26,596.25Z"/><path class="cls-16" d="M1399,634.43l-12.55-4.64a5,5,0,0,1-3-6.43l2.5-6.8a5,5,0,0,1,6.48-2.92l12.55,4.64,2.51-6.79L1395,606.87a12.33,12.33,0,0,0-15.89,7.15l-2.52,6.79a12.34,12.34,0,0,0,7.43,15.77l12.53,4.63Z"/><path class="cls-17" d="M1399.89,625.57a4.9,4.9,0,0,1-6.3,2.84l-40.29-14.89a4.85,4.85,0,1,1,3.36-9.09L1397,619.31A4.9,4.9,0,0,1,1399.89,625.57Z"/><g class="cls-18"><path class="cls-19" d="M1360.25,605.76l-10,4.5a4.93,4.93,0,0,0,3,3.26l6.59,2.44,12.6-5.68Zm9,13.64-6.33-2.34,12.59-5.68,6.35,2.34Zm13.94,5.15-10.27-3.8,12.59-5.68,10.28,3.8Z"/></g><path class="cls-16" d="M1420,616.11l-12.49-4.62-2.51,6.79,12.5,4.62a5,5,0,0,1,3,6.43l-2.52,6.8a5,5,0,0,1-6.48,2.91l-12.5-4.61-2.51,6.78,12.51,4.62a12.34,12.34,0,0,0,15.88-7.16l2.51-6.79A12.33,12.33,0,0,0,1420,616.11Z"/><path class="cls-16" d="M1452.77,654.28l-12.54-4.63a5,5,0,0,1-3-6.43l2.51-6.8a5,5,0,0,1,6.48-2.92l12.54,4.63,2.5-6.78-12.53-4.63a12.34,12.34,0,0,0-15.89,7.16l-2.51,6.79a12.32,12.32,0,0,0,7.41,15.76l12.55,4.64Z"/><path class="cls-17" d="M1453.63,645.42a4.89,4.89,0,0,1-6.3,2.84L1407,633.38a4.85,4.85,0,1,1,3.36-9.09l40.29,14.88A4.88,4.88,0,0,1,1453.63,645.42Z"/><g class="cls-18"><path class="cls-19" d="M1414,625.62l-10,4.5a5,5,0,0,0,3,3.26l6.59,2.43,12.6-5.68Zm8.94,13.63-6.33-2.34,12.6-5.68,6.34,2.34Zm13.94,5.15-10.28-3.79,12.6-5.68,10.28,3.79Z"/></g><path class="cls-16" d="M1473.75,636l-12.51-4.62-2.5,6.78,12.5,4.62a5,5,0,0,1,3,6.43l-2.52,6.8a5,5,0,0,1-6.48,2.92l-12.5-4.62-2.5,6.79,12.5,4.62a12.34,12.34,0,0,0,15.89-7.16l2.5-6.8A12.34,12.34,0,0,0,1473.75,636Z"/><path class="cls-16" d="M1506.51,674.14,1494,669.5a5,5,0,0,1-3-6.43l2.51-6.8a5,5,0,0,1,6.48-2.92l12.55,4.63,2.5-6.77-12.54-4.64a12.33,12.33,0,0,0-15.89,7.16l-2.52,6.79a12.35,12.35,0,0,0,7.43,15.77l12.54,4.64Z"/><path class="cls-17" d="M1507.37,665.28a4.88,4.88,0,0,1-6.3,2.84l-40.29-14.89a4.85,4.85,0,1,1,3.36-9.09L1504.43,659A4.88,4.88,0,0,1,1507.37,665.28Z"/><g class="cls-18"><path class="cls-19" d="M1467.74,645.47l-10,4.51a5,5,0,0,0,3,3.25l6.59,2.44L1480,650Zm8.94,13.64-6.33-2.34,12.6-5.69,6.34,2.35Zm13.94,5.14-10.27-3.79,12.59-5.68,10.29,3.8Z"/></g><path class="cls-16" d="M1527.49,655.82l-12.5-4.61-2.5,6.77,12.49,4.63a5,5,0,0,1,3,6.43l-2.51,6.79a5,5,0,0,1-6.48,2.93l-12.51-4.62-2.5,6.79,12.5,4.61a12.32,12.32,0,0,0,15.88-7.16l2.51-6.8A12.33,12.33,0,0,0,1527.49,655.82Z"/><path class="cls-16" d="M1560.26,694l-12.54-4.64a5,5,0,0,1-3-6.43l2.51-6.8a5,5,0,0,1,6.49-2.92l12.53,4.63,2.51-6.78-12.54-4.64a12.35,12.35,0,0,0-15.89,7.16l-2.51,6.8a12.34,12.34,0,0,0,7.41,15.76l12.55,4.64Z"/><path class="cls-17" d="M1561.12,685.13a4.89,4.89,0,0,1-6.3,2.84l-40.29-14.88a4.85,4.85,0,1,1,3.36-9.1l40.29,14.89A4.89,4.89,0,0,1,1561.12,685.13Z"/><g class="cls-18"><path class="cls-19" d="M1521.49,665.33l-10,4.51a5,5,0,0,0,3,3.25l6.58,2.43,12.61-5.67Zm8.94,13.63-6.34-2.34,12.6-5.68,6.34,2.34Zm13.93,5.15-10.28-3.8,12.6-5.68,10.29,3.8Z"/></g><path class="cls-16" d="M1581.23,675.68l-12.5-4.62-2.51,6.78,12.51,4.62a5,5,0,0,1,3,6.43l-2.51,6.8a5,5,0,0,1-6.48,2.92L1560.26,694l-2.51,6.78,12.5,4.62a12.35,12.35,0,0,0,15.89-7.16l2.51-6.79A12.34,12.34,0,0,0,1581.23,675.68Z"/><path class="cls-16" d="M1614,713.85l-12.54-4.64a5,5,0,0,1-3-6.43l2.51-6.79a5,5,0,0,1,6.48-2.93l12.55,4.63,2.5-6.78-12.54-4.63a12.33,12.33,0,0,0-15.88,7.16l-2.51,6.79A12.33,12.33,0,0,0,1599,716l12.54,4.63Z"/><path class="cls-17" d="M1614.85,705a4.87,4.87,0,0,1-6.3,2.84l-40.28-14.89a4.85,4.85,0,1,1,3.36-9.09l40.28,14.88A4.88,4.88,0,0,1,1614.85,705Z"/><g class="cls-18"><path class="cls-19" d="M1575.23,685.18l-10,4.51a4.92,4.92,0,0,0,3,3.25l6.58,2.44,12.61-5.68Zm8.94,13.64-6.34-2.35,12.6-5.67,6.34,2.34Zm13.94,5.15-10.28-3.8,12.6-5.68,10.28,3.8Z"/></g><path class="cls-16" d="M1635,695.53l-12.5-4.62-2.5,6.78,12.5,4.63a5,5,0,0,1,3,6.43l-2.51,6.8a5,5,0,0,1-6.48,2.92l-12.5-4.62-2.51,6.78,12.5,4.62a12.33,12.33,0,0,0,15.88-7.16l2.52-6.79A12.34,12.34,0,0,0,1635,695.53Z"/><path class="cls-16" d="M1667.74,733.71l-12.54-4.64a5,5,0,0,1-3-6.44l2.51-6.79a5,5,0,0,1,6.49-2.92l12.53,4.63,2.52-6.78-12.54-4.64a12.36,12.36,0,0,0-15.9,7.16l-2.51,6.8a12.34,12.34,0,0,0,7.42,15.76l12.54,4.64Z"/><path class="cls-17" d="M1668.6,724.85a4.91,4.91,0,0,1-6.31,2.83L1622,712.8a4.85,4.85,0,1,1,3.36-9.1l40.29,14.89A4.9,4.9,0,0,1,1668.6,724.85Z"/><g class="cls-18"><path class="cls-19" d="M1629,705l-10,4.51a4.93,4.93,0,0,0,3,3.26l6.59,2.43,12.6-5.68Zm9,13.65-6.35-2.35,12.6-5.68,6.34,2.34Zm13.93,5.14-10.28-3.8,12.6-5.67,10.28,3.79Z"/></g><path class="cls-16" d="M1688.72,715.39l-12.5-4.62-2.52,6.78,12.51,4.62a5,5,0,0,1,3,6.43l-2.51,6.8a5,5,0,0,1-6.49,2.92l-12.5-4.61-2.51,6.78,12.5,4.61a12.33,12.33,0,0,0,15.89-7.15l2.51-6.8A12.32,12.32,0,0,0,1688.72,715.39Z"/><path class="cls-16" d="M1721.48,753.56l-12.54-4.63a5,5,0,0,1-3-6.44l2.51-6.79a5,5,0,0,1,6.48-2.93l12.55,4.64,2.5-6.79L1717.42,726a12.34,12.34,0,0,0-15.89,7.16l-2.51,6.79a12.34,12.34,0,0,0,7.41,15.77l12.55,4.64Z"/><path class="cls-17" d="M1722.34,744.7a4.88,4.88,0,0,1-6.3,2.84l-40.29-14.89a4.85,4.85,0,1,1,3.36-9.09l40.29,14.89A4.88,4.88,0,0,1,1722.34,744.7Z"/><g class="cls-18"><path class="cls-19" d="M1682.71,724.89l-10,4.51a4.94,4.94,0,0,0,3,3.25l6.59,2.44,12.6-5.68Zm9,13.64-6.35-2.35,12.61-5.67,6.34,2.34Zm13.93,5.15-10.28-3.79,12.6-5.69,10.28,3.8Z"/></g><path class="cls-16" d="M1742.45,735.24l-12.5-4.62-2.5,6.79L1740,742a5,5,0,0,1,3,6.43l-2.51,6.8a5,5,0,0,1-6.48,2.92l-12.5-4.62-2.5,6.79,12.5,4.61a12.33,12.33,0,0,0,15.88-7.15l2.51-6.8A12.33,12.33,0,0,0,1742.45,735.24Z"/><path class="cls-16" d="M1775.23,773.42l-12.55-4.64a5,5,0,0,1-3-6.43l2.52-6.8a5,5,0,0,1,6.48-2.92l12.54,4.63,2.51-6.77-12.55-4.65a12.33,12.33,0,0,0-15.88,7.16l-2.51,6.8a12.35,12.35,0,0,0,7.42,15.77l12.54,4.63Z"/><path class="cls-17" d="M1776.08,764.55a4.91,4.91,0,0,1-6.3,2.85l-40.28-14.89a4.85,4.85,0,1,1,3.35-9.1l40.29,14.89A4.88,4.88,0,0,1,1776.08,764.55Z"/><g class="cls-18"><path class="cls-19" d="M1736.45,744.74l-10,4.51a5,5,0,0,0,3,3.26l6.58,2.43,12.6-5.68Zm9,13.64-6.34-2.34,12.6-5.68,6.34,2.35Zm13.93,5.15-10.28-3.79,12.6-5.69,10.28,3.8Z"/></g><path class="cls-16" d="M1796.2,755.1l-12.5-4.61-2.51,6.77,12.5,4.62a5,5,0,0,1,3,6.43l-2.5,6.81a5,5,0,0,1-6.48,2.92l-12.5-4.62-2.51,6.78,12.5,4.62a12.33,12.33,0,0,0,15.88-7.16l2.51-6.8A12.32,12.32,0,0,0,1796.2,755.1Z"/><path class="cls-16" d="M1829,793.27l-12.54-4.63a5.06,5.06,0,0,1-3-6.44l2.51-6.79a5,5,0,0,1,6.49-2.93l12.54,4.64,2.51-6.78-12.54-4.63a12.32,12.32,0,0,0-15.89,7.15l-2.51,6.8a12.33,12.33,0,0,0,7.41,15.76l12.55,4.64Z"/><path class="cls-17" d="M1829.82,784.4a4.87,4.87,0,0,1-6.31,2.84l-40.27-14.87a4.85,4.85,0,1,1,3.35-9.1l40.29,14.88A4.89,4.89,0,0,1,1829.82,784.4Z"/><g class="cls-18"><path class="cls-19" d="M1790.2,764.61l-10,4.49a5,5,0,0,0,3,3.27l6.58,2.43,12.61-5.68Zm8.94,13.63-6.34-2.34,12.61-5.68,6.33,2.34Zm13.93,5.15-10.28-3.8,12.61-5.68,10.28,3.8Z"/></g><path class="cls-16" d="M1849.94,775l-12.5-4.61-2.51,6.78,12.51,4.61a5,5,0,0,1,3,6.44L1848,795a5,5,0,0,1-6.48,2.93l-12.5-4.62-2.51,6.79,12.5,4.61a12.34,12.34,0,0,0,15.89-7.16l2.51-6.79A12.33,12.33,0,0,0,1849.94,775Z"/><path class="cls-16" d="M1882.71,813.12l-12.55-4.63a5,5,0,0,1-3-6.43l2.51-6.8a5,5,0,0,1,6.48-2.92l12.54,4.63,2.51-6.78-12.54-4.63a12.32,12.32,0,0,0-15.88,7.16l-2.51,6.79a12.33,12.33,0,0,0,7.41,15.77l12.54,4.63Z"/><path class="cls-17" d="M1883.56,804.26a4.88,4.88,0,0,1-6.29,2.84L1837,792.22a4.85,4.85,0,1,1,3.36-9.1l40.3,14.89A4.88,4.88,0,0,1,1883.56,804.26Z"/><g class="cls-18"><path class="cls-19" d="M1843.93,784.45l-10,4.51a4.94,4.94,0,0,0,3,3.26l6.59,2.43,12.61-5.68Zm9,13.64-6.34-2.34,12.6-5.68,6.33,2.34Zm13.94,5.15-10.28-3.79,12.6-5.68,10.28,3.79Z"/></g><path class="cls-16" d="M1903.68,794.81l-12.5-4.62-2.51,6.78,12.5,4.62a5,5,0,0,1,3,6.44l-2.51,6.79a5,5,0,0,1-6.48,2.93l-12.5-4.63-2.51,6.79,12.5,4.62a12.34,12.34,0,0,0,15.89-7.16l2.51-6.79A12.34,12.34,0,0,0,1903.68,794.81Z"/><path class="cls-16" d="M1936.45,833l-12.54-4.63a5,5,0,0,1-3-6.44l2.5-6.8a5.06,5.06,0,0,1,6.5-2.92l12.54,4.64,2.51-6.78-12.55-4.64a12.33,12.33,0,0,0-15.88,7.16l-2.51,6.8a12.31,12.31,0,0,0,7.41,15.76l12.55,4.64Z"/><path class="cls-17" d="M1937.31,824.12A4.9,4.9,0,0,1,1931,827l-40.3-14.89a4.85,4.85,0,1,1,3.37-9.09l40.28,14.88A4.9,4.9,0,0,1,1937.31,824.12Z"/><g class="cls-18"><path class="cls-19" d="M1897.68,804.32l-10,4.5a4.92,4.92,0,0,0,3,3.25l6.6,2.44,12.6-5.68Zm9,13.63-6.35-2.35,12.61-5.67,6.33,2.34Zm13.93,5.15-10.28-3.8,12.6-5.68,10.28,3.8Z"/></g><path class="cls-16" d="M1957.43,814.67l-12.5-4.62-2.51,6.78,12.49,4.61a5.06,5.06,0,0,1,3,6.44l-2.52,6.79a5,5,0,0,1-6.48,2.93l-12.5-4.62-2.5,6.79,12.49,4.62a12.35,12.35,0,0,0,15.89-7.16l2.51-6.8A12.33,12.33,0,0,0,1957.43,814.67Z"/><path class="cls-16" d="M1990.2,852.84l-12.55-4.64a5,5,0,0,1-3-6.43l2.52-6.8a5,5,0,0,1,6.48-2.92l12.55,4.64,2.5-6.79-12.55-4.63a12.33,12.33,0,0,0-15.88,7.16l-2.52,6.79a12.34,12.34,0,0,0,7.43,15.77l12.54,4.63Z"/><path class="cls-17" d="M1991.05,844a4.89,4.89,0,0,1-6.3,2.83l-40.29-14.88a4.85,4.85,0,1,1,3.36-9.1l40.29,14.89A4.89,4.89,0,0,1,1991.05,844Z"/><g class="cls-18"><path class="cls-19" d="M1951.42,824.17l-10,4.5a4.93,4.93,0,0,0,3,3.26l6.59,2.44,12.6-5.69Zm8.94,13.64-6.33-2.34,12.6-5.69,6.33,2.35ZM1974.3,843,1964,839.16l12.6-5.68,10.28,3.79Z"/></g></g><polygon class="cls-17" points="1697.71 544.9 1648.53 513.08 1637.99 529.37 1655.02 540.39 1630.41 578.4 1645.53 588.19 1670.13 550.17 1687.17 561.2 1697.71 544.9"/><polygon class="cls-17" points="1447.77 544.9 1496.95 513.08 1507.49 529.37 1490.46 540.39 1515.06 578.4 1499.95 588.19 1475.35 550.17 1458.32 561.2 1447.77 544.9"/><path class="cls-17" d="M1601.78,521.78a28.85,28.85,0,1,1-28.85-28.85A28.85,28.85,0,0,1,1601.78,521.78Z"/><path class="cls-17" d="M1729.2,687.31a156.27,156.27,0,1,1-156.27-156.26A156.27,156.27,0,0,1,1729.2,687.31Z"/><path class="cls-20" d="M1706.61,606.34,1492,821a157.06,157.06,0,0,1-33.59-27.41l220.82-220.82A157.41,157.41,0,0,1,1706.61,606.34Zm-133.68-75.29a157.18,157.18,0,0,0-35,3.92L1420.59,652.35a157.27,157.27,0,0,0-3.92,35,155.46,155.46,0,0,0,23.48,82.39l215.17-215.18A155.55,155.55,0,0,0,1572.93,531.05Z"/><path class="cls-3" d="M1694.52,687.31a121.59,121.59,0,1,1-121.59-121.59A121.59,121.59,0,0,1,1694.52,687.31Z"/><polygon class="cls-21" points="1572.93 687.31 1572.93 687.31 1572.93 687.31 1572.93 687.31"/><path class="cls-22" d="M1620.41,639.84a67,67,0,0,0-47.48-19.67v67.14Z"/><path class="cls-22" d="M1640.07,687.31a66.91,66.91,0,0,0-19.66-47.47l-47.48,47.47Z"/><path class="cls-21" d="M1572.93,687.31h0V620.17a67.14,67.14,0,1,0,67.14,67.14Z"/><path class="cls-3" d="M1596,687.31a23,23,0,1,1-23-23A23,23,0,0,1,1596,687.31Z"/><path class="cls-23" d="M1583.34,687.31a10.41,10.41,0,1,1-10.41-10.41A10.41,10.41,0,0,1,1583.34,687.31Z"/><rect class="cls-23" x="1569.7" y="605.77" width="6.45" height="79.89"/><path class="cls-17" d="M1576.16,595.38h-6.46V575.26h6.46Zm0,185.87h-6.46v20.12h6.46Z"/><path class="cls-17" d="M1665.87,691.54v-6.45H1686v6.45Zm-185.87,0v-6.45h-20.13v6.45Z"/><path class="cls-17" d="M1640.92,624.88l-4.56-4.56,14.23-14.23,4.57,4.56ZM1509.49,756.31l-4.55-4.56L1490.71,766l4.56,4.56Z"/><path class="cls-17" d="M1636.36,756.31l4.56-4.56L1655.16,766l-4.57,4.56ZM1504.94,624.88l4.55-4.56-14.22-14.23-4.56,4.56Z"/><path class="cls-19" d="M1513.53,864A16.3,16.3,0,0,1,1492,872.3h0a16.3,16.3,0,0,1-8.34-21.49l19.82-45A16.31,16.31,0,0,1,1525,797.5h0a16.3,16.3,0,0,1,8.34,21.49Z"/><path class="cls-21" d="M1489.77,944.49a17.57,17.57,0,0,1-23.17,9l-17.33-7.64a17.57,17.57,0,0,1-9-23.16l33.45-75.87a17.57,17.57,0,0,1,23.16-9l17.33,7.64a17.57,17.57,0,0,1,9,23.16Z"/><path class="cls-23" d="M1448.23,904.65l-8,18a17.57,17.57,0,0,0,9,23.16l17.33,7.64a17.57,17.57,0,0,0,23.17-9l8-18Z"/><path class="cls-21" d="M1569.55,817.13c-6.46,14.64-31.62,17.71-56.22,6.87s-39.31-31.5-32.86-46.13,31.62-17.71,56.22-6.86S1576,802.5,1569.55,817.13Z"/><path class="cls-24" d="M1655.42,725.34A92.07,92.07,0,1,1,1608.31,604,92.08,92.08,0,0,1,1655.42,725.34Z"/><path class="cls-21" d="M1621.11,574.92a123.81,123.81,0,1,0,63.36,163.23A123.81,123.81,0,0,0,1621.11,574.92Zm-84.57,191.85a85.86,85.86,0,1,1,113.2-43.93A85.85,85.85,0,0,1,1536.54,766.77Z"/><path class="cls-25" d="M1511.53,626.44a85.85,85.85,0,0,0-25.6,72l-36.17,14a123.15,123.15,0,0,1,4-63.6ZM1631.27,580l-57.74,22.41A85.89,85.89,0,0,1,1641,638.23l36.17-14A123.12,123.12,0,0,0,1631.27,580ZM1513.2,751.54a85.72,85.72,0,0,1-20.6-28.75l-35.41,13.74a124.43,124.43,0,0,0,17.9,29.8ZM1687.91,647l-35.4,13.73a85.82,85.82,0,0,1,4.19,35.13l38.1-14.79A123.87,123.87,0,0,0,1687.91,647Z"/><path class="cls-19" d="M1667.05,730.47a104.78,104.78,0,1,0-138.14,53.61A104.79,104.79,0,0,0,1667.05,730.47Zm-130.51,36.3a85.86,85.86,0,1,1,113.2-43.93A85.85,85.85,0,0,1,1536.54,766.77Z"/><path class="cls-26" d="M1565.81,669.1c-20.66,8-42.13,2.34-48-12.67s6.2-33.68,26.85-41.7,42.14-2.35,48,12.67S1586.47,661.08,1565.81,669.1Z"/><path class="cls-27" d="M1345.8,395.63c46.84,122.29-14.32,259.39-136.6,306.23S949.81,687.55,903,565.26,917.29,305.88,1039.57,259,1299,273.35,1345.8,395.63Z"/><path class="cls-27" d="M1270.57,424.45a156.54,156.54,0,1,1-202.18-90.19A156.55,156.55,0,0,1,1270.57,424.45Z"/><path class="cls-28" d="M1209,448.06a90.56,90.56,0,1,1-117-52.17A90.55,90.55,0,0,1,1209,448.06Z"/><path class="cls-23" d="M1069.71,391.06c40.86,22.1,18.37,40.7,13.74,65.74s26,46.49,26,46.49L1153,475.46C1169.08,405.13,1069.71,391.06,1069.71,391.06Z"/><path class="cls-21" d="M1104.64,409.8c24.25,25.31,3.8,33.49-5.31,50.43s8,39.41,8,39.41l37.79-10C1172.82,442.82,1104.64,409.8,1104.64,409.8Z"/><path class="cls-14" d="M1124.9,448.31c9.35,16.55-2.48,18.1-9.54,25.77s-1.11,21.77-1.11,21.77l21.18-.17C1156.28,474.8,1124.9,448.31,1124.9,448.31Z"/><polygon class="cls-7" points="1299.53 890.07 1267.82 902.22 1097.38 498.28 1159.91 474.32 1299.53 890.07"/><path class="cls-29" d="M1137.18,483l-15.55,6-5.28,54.24,7.16,17c21,8,75.61,37,106.4,128.71a158,158,0,0,0,10.59,25.38L1164,486.59C1154.76,484.82,1145.32,483.06,1137.18,483Z"/><rect class="cls-30" x="1089.92" y="481.44" width="85.46" height="30.61" transform="translate(-102.75 438.03) rotate(-20.96)"/><rect class="cls-17" x="1092.94" y="500.63" width="99.49" height="44.64" transform="translate(-111.46 443.36) rotate(-20.96)"/><polygon class="cls-14" points="1097.94 516.19 1091.96 529.59 1104.22 561.59 1106.47 560.72 1132.2 503.07 1097.94 516.19"/><polygon class="cls-14" points="1165.07 490.48 1143.94 498.57 1118.22 556.22 1139.35 548.13 1165.07 490.48"/><polygon class="cls-14" points="1187.48 500.84 1183.55 490.57 1161.7 539.57 1171.96 535.64 1187.48 500.84"/><path class="cls-27" d="M2226.79,549.56c-39.38,124.89-172.55,194.2-297.44,154.81s-194.19-172.55-154.81-297.44S1947.09,212.74,2072,252.12,2266.18,424.67,2226.79,549.56Z"/><path class="cls-27" d="M2150,525.33A156.54,156.54,0,1,1,2047.75,329,156.56,156.56,0,0,1,2150,525.33Z"/><path class="cls-28" d="M2087,505.48a90.56,90.56,0,1,1-59.13-113.6A90.56,90.56,0,0,1,2087,505.48Z"/><path class="cls-23" d="M2013.46,374.25c18.23,42.72-10.93,43.29-30.14,60s-8.58,52.55-8.58,52.55l51.47,5.33C2082.52,447.07,2013.46,374.25,2013.46,374.25Z"/><path class="cls-21" d="M2029.15,410.64c3.25,34.91-17.86,28.6-35.52,36.19s-18.29,35.81-18.29,35.81l35.78,15.7C2062,478.92,2029.15,410.64,2029.15,410.64Z"/><path class="cls-14" d="M2021.06,453.41c-3,18.77-13.2,12.62-23.5,14.24S1983.15,484,1983.15,484l16.69,13C2029.16,493.67,2021.06,453.41,2021.06,453.41Z"/><polygon class="cls-7" points="1883.02 907.93 1850.64 897.72 1968.43 475.41 2032.29 495.55 1883.02 907.93"/><path class="cls-29" d="M2009.07,488.22l-15.87-5-37.88,39.19-5,17.75c11.45,19.32,36.19,76,3.25,167-3.89,10.78-6.31,19.5-7.49,26.46l81.76-225.88C2021.73,500.56,2015.44,493.31,2009.07,488.22Z"/><rect class="cls-30" x="1954.27" y="480.84" width="85.46" height="30.61" transform="translate(241.66 -577.6) rotate(17.5)"/><rect class="cls-17" x="1938.82" y="500.59" width="99.49" height="44.64" transform="translate(249.31 -573.82) rotate(17.5)"/><polygon class="cls-14" points="1957.72 489.78 1944.71 496.56 1934.41 529.23 1936.71 529.96 1992.71 500.82 1957.72 489.78"/><polygon class="cls-14" points="2026.28 511.4 2004.71 504.6 1948.71 533.74 1970.29 540.55 2026.28 511.4"/><polygon class="cls-14" points="2037.39 533.46 2040.7 522.98 1993.11 547.74 2003.59 551.05 2037.39 533.46"/><polygon class="cls-31" points="1124.13 910.3 1144.49 998.17 1354.81 973.93 1354.65 883.73 1124.13 910.3"/><path class="cls-32" d="M1354.7,948.74l-.12-65.61-186.77,21.52L1137.2,919.2s206.53-6,207.43,48.65Z"/><path class="cls-7" d="M1356.06,984.81l-210.31,24.24a10.75,10.75,0,0,1-11.62-8.4l-20.37-87.87a11.19,11.19,0,0,1,1.63-8.8,10.55,10.55,0,0,1,7.49-4.55l230.51-26.57a10.51,10.51,0,0,1,8.33,2.73,11.19,11.19,0,0,1,3.58,8.19l.17,90.2A10.76,10.76,0,0,1,1356.06,984.81Zm-203.4,1.41,191.48-22.08L1344,896l-206.76,23.83Z"/><path class="cls-7" d="M1363.32,984.35l-224.74,25.91a17.93,17.93,0,0,1-19.86-15.75l-.62-5.37a17.92,17.92,0,0,1,15.75-19.86l224.74-25.91a17.93,17.93,0,0,1,19.87,15.76l.62,5.36A17.92,17.92,0,0,1,1363.32,984.35Z"/><rect class="cls-23" x="1117.9" y="772.3" width="228.47" height="92.41" transform="translate(-85.62 146.47) rotate(-6.58)"/><rect class="cls-23" x="1117.9" y="772.3" width="228.47" height="92.41" transform="translate(-85.62 146.47) rotate(-6.58)"/><rect class="cls-32" x="1186.5" y="802.19" width="87.12" height="27.81" transform="translate(1899.96 -499.32) rotate(83.43)"/><rect class="cls-31" x="1158.87" y="805.37" width="87.12" height="27.81" transform="translate(1878.65 -469.05) rotate(83.43)"/><rect class="cls-32" x="1131.25" y="808.56" width="87.12" height="27.81" transform="translate(1857.36 -438.79) rotate(83.43)"/><rect class="cls-32" x="1241.75" y="795.82" width="87.12" height="27.81" transform="translate(1942.5 -559.87) rotate(83.42)"/><rect class="cls-31" x="1214.13" y="799.01" width="87.12" height="27.81" transform="translate(1921.25 -529.58) rotate(83.43)"/><path class="cls-7" d="M1348.76,758.55l-18.47,2.13-16.43,1.9,7.87,68.29a16.77,16.77,0,0,1-14.49,18.79l-144.69,16.68a16.78,16.78,0,0,1-18.39-15l-7.88-68.29-16.43,1.89-18.46,2.13a16.77,16.77,0,0,0-14.49,18.79l7,60.66,4.72,41a16.78,16.78,0,0,0,18.38,15l42.33-4.87L1322,898.85l42.33-4.88a16.79,16.79,0,0,0,14.49-18.79l-4.73-41-7-60.66A16.8,16.8,0,0,0,1348.76,758.55Z"/><path class="cls-33" d="M1271.43,891.69l-.22-.35c-.38-.59-.76-1.16-1.17-1.71-.2-.27-.41-.53-.61-.79-.33-.42-.65-.84-1-1.23-.52-.6-1.06-1.17-1.62-1.72-.08-.07-.15-.16-.23-.24h0a30.56,30.56,0,0,0-5-3.88,23.2,23.2,0,0,0-.54-5.58c-2.75-12.19-14.59-19.85-26.45-17.11s-19.23,14.86-16.48,27a23.4,23.4,0,0,0,1.89,5.27,31.91,31.91,0,0,0-4.07,24c.2.87.45,1.72.72,2.56h0c.21.69.46,1.36.71,2,.08.21.16.42.25.63q.39.95.84,1.86l.3.6c.32.62.65,1.24,1,1.83l.19.29a31.07,31.07,0,0,0,6.25,7.32l0,0c.62.53,1.26,1,1.91,1.51h0a30.85,30.85,0,0,0,7,3.84c.71.28,1.43.53,2.17.75.5.15,1,.26,1.5.39.33.08.64.16,1,.22.66.14,1.33.25,2,.35l.41,0q1.14.15,2.31.21h0a29.94,29.94,0,0,0,8.17-.7c16.45-3.82,26.71-20.63,22.89-37.56A31.91,31.91,0,0,0,1271.43,891.69ZM1236.83,869a12.22,12.22,0,0,1,14.38,8.7c-.68-.13-1.37-.21-2-.3l-.35,0c-.68-.08-1.36-.12-2-.15l-.67,0c-.66,0-1.32,0-2,0l-.67.05c-.69,0-1.37.1-2.07.2h0c-.85.12-1.7.26-2.55.45a30,30,0,0,0-11.24,5.24A12.4,12.4,0,0,1,1236.83,869Z"/><path class="cls-34" d="M1234.58,855.4c-12.07,1.39-20.71,12.59-19.27,25s12.38,21.36,24.47,20,20.72-12.59,19.29-25S1246.68,854,1234.58,855.4Zm4,34.93a12.53,12.53,0,1,1,10.67-13.84A12.35,12.35,0,0,1,1238.62,890.33Z"/><path class="cls-21" d="M1236.79,874.54C1220,876.47,1208,892,1210,909.27s17.2,29.66,34,27.72,28.78-17.48,26.79-34.73S1253.57,872.6,1236.79,874.54Z"/><path class="cls-25" d="M1239.39,874.37l-28.93,37.52a31.66,31.66,0,0,0,9.72,17.28l37.76-49A30,30,0,0,0,1239.39,874.37Z"/><path class="cls-25" d="M1268.71,894.1a31.76,31.76,0,0,0-5.15-8.72l-37.19,48.22a30.1,30.1,0,0,0,9.43,3.17Z"/><path class="cls-34" d="M1249.76,920.77l-4.88-6.75a8.78,8.78,0,0,0,3.72-10,8.48,8.48,0,0,0-16.56,3.51,8.74,8.74,0,0,0,5.87,7.33l-3.22,7.68a1.63,1.63,0,0,0,1.63,2.27l12.37-1.43A1.62,1.62,0,0,0,1249.76,920.77Z"/><path class="cls-23" d="M1303.3,248.92c.3-.32.58-.64.86-1l14.92.12,3.29-6.88-9.06-11a38.22,38.22,0,0,0,.86-5.61l11.47-8.19-1.38-7.52L1311,205.43a41,41,0,0,0-3-5.62l4.32-12.94-5.53-5.26-12.7,5a39.44,39.44,0,0,0-5.78-2.72l-4.1-13.07-7.59-1L1269,181.72a39.28,39.28,0,0,0-5.55,1.13L1252,174.37l-6.71,3.65.88,14.89c-.29.3-.6.59-.89.9-.77.8-1.47,1.63-2.16,2.48l-15.06-.13-3.3,6.89,10,12.16c-.17,1.15-.3,2.31-.38,3.45l-12.89,9.21,1.39,7.51,15.74,4.09c.42.83.88,1.64,1.37,2.45l-5.17,15.46,5.53,5.26,15.17-5.95c.84.43,1.67.85,2.52,1.23l4.9,15.51,7.58,1,8.51-13.35c1.14-.14,2.29-.33,3.42-.56l12.66,9.36,6.72-3.65-.91-15C1301.75,250.46,1302.54,249.72,1303.3,248.92Zm-41.64-14.25a18.35,18.35,0,1,1,25.95-.67A18.37,18.37,0,0,1,1261.66,234.67Z"/><path class="cls-35" d="M1294.53,200.06a29.38,29.38,0,1,0,1.07,41.54A29.37,29.37,0,0,0,1294.53,200.06Zm-32.87,34.61a18.35,18.35,0,1,1,25.95-.67A18.37,18.37,0,0,1,1261.66,234.67Z"/><path class="cls-21" d="M1197,305.64c.42-.45.83-.9,1.23-1.36l21.48.18,4.74-9.92-13-15.85a55.54,55.54,0,0,0,1.23-8.08l16.53-11.78-2-10.82-19.08-5a58.36,58.36,0,0,0-4.32-8.09l6.25-18.62-8-7.58-18.28,7.17a57.85,57.85,0,0,0-8.29-3.9l-5.92-18.82-10.93-1.43-10.93,17.11a56.6,56.6,0,0,0-8,1.63l-16.51-12.21-9.67,5.24L1114.8,225c-.43.43-.88.86-1.29,1.3-1.11,1.15-2.12,2.34-3.11,3.56l-21.69-.2-4.75,9.94,14.39,17.51c-.26,1.65-.45,3.31-.57,5l-18.55,13.25,2,10.81,22.66,5.9c.6,1.2,1.26,2.37,2,3.53l-7.45,22.26,8,7.58,21.85-8.57c1.21.63,2.4,1.22,3.63,1.77l7,22.33,10.91,1.44L1162,323.14c1.66-.19,3.31-.46,4.94-.8l18.21,13.48,9.68-5.24-1.29-21.66Q1195.34,307.36,1197,305.64Zm-59.94-20.53a26.42,26.42,0,1,1,37.35-.95A26.43,26.43,0,0,1,1137.05,285.11Z"/><path class="cls-35" d="M1184.39,235.31a42.29,42.29,0,1,0,1.51,59.8A42.32,42.32,0,0,0,1184.39,235.31Zm-47.34,49.8a26.42,26.42,0,1,1,37.35-.95A26.43,26.43,0,0,1,1137.05,285.11Z"/><path class="cls-36" d="M1875.37,831.09l0,0c-14.19-17.92,3.49-29.87,3.49-29.87l0,0c52.15-37.36,59.88-106.19,59.88-106.19l-141.26-16.51s-8.37,68.76,33.78,117.15l-.06-.05s14.46,15.71-3.49,29.87h0c-52.14,37.36-59.86,106.18-59.86,106.18l141.26,16.51S1917.48,879.47,1875.37,831.09Z"/><path class="cls-37" d="M1852.47,747.74c-12.86-1.5-26.57,5.65-34.58,10.83,7.31,17,18.69,33.87,36.29,47.22,19.69-8.7,36.13-22.6,49.1-41.46C1878.52,760,1868.73,749.65,1852.47,747.74Z"/><path class="cls-37" d="M1848.51,854.25c-10.67,13.86-38.25,23.42-56.93,28.55-.67,1.38-1.33,2.78-2,4.2a182.15,182.15,0,0,0-12.06,37.43l123.8,14.47a182,182,0,0,0-1.44-28.8C1857.69,887.77,1848.51,854.25,1848.51,854.25Z"/><path class="cls-23" d="M1954.51,693.83a15.53,15.53,0,0,1-17.24,13.63L1796,691a15.55,15.55,0,0,1-13.64-17.25h0a15.55,15.55,0,0,1,17.25-13.63l141.26,16.51a15.54,15.54,0,0,1,13.63,17.25Z"/><path class="cls-37" d="M1849.63,802.15s4.45,4.44,2.86,18.07-1.73,33.13-12.71,42.2,11.8,7.62,11.8,7.62l2-4.12s-3.75-7.8-1.84-23.41,2-35.59,10.37-40.6,4.61-8.33.94-8.12a78.85,78.85,0,0,1-9.62-.37"/><path class="cls-38" d="M1848.12,734.29c4.76,18.3,1.09,35.09-8.18,37.5s-20.65-10.47-25.41-28.77-1.09-35.09,8.18-37.5S1843.36,716,1848.12,734.29Z"/><path class="cls-38" d="M1826.37,872.19c-8.31,10.63-19.42,15.83-24.8,11.62s-3-16.24,5.29-26.87,19.41-15.84,24.79-11.62S1834.67,861.56,1826.37,872.19Z"/><path class="cls-39" d="M1901,920.79c-25.53-4.81-60.62-32.93-78.65-48.68a224.1,224.1,0,0,1-30.76,10.69c-.67,1.38-1.33,2.78-2,4.2a182.15,182.15,0,0,0-12.06,37.43l123.8,14.47A178.87,178.87,0,0,0,1901,920.79Z"/><path class="cls-21" d="M1901.36,938.9c.11-3.41.13-7.75-.08-12.76-48-1.09-93.9-29.2-110.88-40.82-.26.56-.53,1.11-.78,1.68a182.15,182.15,0,0,0-12.06,37.43Z"/><path class="cls-23" d="M1752.07,933a15.54,15.54,0,0,1,17.24-13.64l141.26,16.51a15.55,15.55,0,0,1,13.64,17.25h0A15.54,15.54,0,0,1,1907,966.7L1765.7,950.19A15.55,15.55,0,0,1,1752.07,933Z"/><path class="cls-23" d="M2043.32,825.53c.1-.45.18-.89.25-1.33l13.55-8-.76-8-14.17-5a38.68,38.68,0,0,0-2.27-5.53l5.92-13.63-5.34-6-13.84,4.09a43.66,43.66,0,0,0-5.76-3.45l-3.12-14-7.86-1.75-8.76,11.41a42.37,42.37,0,0,0-6.69.68l-10.81-9.57-7.39,3.22-.4,14.86a42.05,42.05,0,0,0-4.4,4l-15-1.43-4.08,6.94,8.88,13c-.09.43-.22.87-.31,1.3-.26,1.15-.45,2.27-.6,3.42l-13.68,8.06.76,8,15.63,5.55c.46,1.14,1,2.25,1.53,3.33L1958,850.94l5.33,6,16.45-4.85c.83.52,1.68,1,2.56,1.47l3.74,16.78,7.85,1.74,10.47-13.62c1-.06,2-.14,2.94-.25l12.85,11.35,7.39-3.21.45-16.69c1-.74,1.89-1.54,2.79-2.36l16.51,1.58,4.1-6.94-9-13.1C2042.76,827.77,2043.07,826.67,2043.32,825.53ZM1998,835.27A19.35,19.35,0,1,1,2021,820.58,19.35,19.35,0,0,1,1998,835.27Z"/><path class="cls-35" d="M2008.87,786.15a31,31,0,1,0,23.51,37A31,31,0,0,0,2008.87,786.15ZM1998,835.27A19.35,19.35,0,1,1,2021,820.58,19.35,19.35,0,0,1,1998,835.27Z"/><path class="cls-22" d="M2013.74,951.57c.14-.64.26-1.27.38-1.91l19.49-11.5-1.1-11.54-20.39-7.23a58.51,58.51,0,0,0-3.28-8l8.53-19.63-7.67-8.69L1989.76,889a61.5,61.5,0,0,0-8.3-5L1977,863.81l-11.33-2.51L1953,877.71a61.38,61.38,0,0,0-9.61,1l-15.58-13.78-10.64,4.64-.58,21.4a60.87,60.87,0,0,0-6.33,5.81l-21.54-2.06-5.89,10,12.81,18.67c-.16.63-.34,1.26-.47,1.88-.37,1.64-.64,3.27-.87,4.91l-19.69,11.61,1.1,11.55,22.52,8q1,2.45,2.19,4.79l-9.57,22,7.68,8.69,23.67-7c1.2.75,2.44,1.45,3.69,2.12l5.37,24.15,11.31,2.52L1957.68,999c1.43-.09,2.82-.2,4.24-.38l18.49,16.35,10.63-4.62.65-24c1.39-1.07,2.73-2.21,4-3.4l23.78,2.28,5.89-10-12.93-18.86Q2013.19,954,2013.74,951.57Zm-65.29,14a27.85,27.85,0,1,1,33.21-21.16A27.85,27.85,0,0,1,1948.45,965.6Z"/><path class="cls-35" d="M1964.14,894.88A44.59,44.59,0,1,0,1998,948.07,44.62,44.62,0,0,0,1964.14,894.88Zm-15.69,70.72a27.85,27.85,0,1,1,33.21-21.16A27.85,27.85,0,0,1,1948.45,965.6Z"/><path class="cls-14" d="M1847.25,203.93c0,11.88-5.71,19-15.2,25.36-15,10.06-29,15-29,26.4,0,4.68,2.52,6.74,5.15,6.74,3.09,0,4.12-2.86,4.21-4.57.13-1.26.13-1.94.82-1.94s.91.91.91,2.28c0,3.54-1.94,6.75-6.62,6.75-4.35,0-8.69-2.75-8.69-9.72,0-20.45,33.71-26.39,33.71-54.73,0-9.26-4.46-19-16.8-19-9.48,0-14.74,5.95-14.74,12.8,0,10.28,10,13.37,10,22.62,0,4.46-2.75,9.26-9.73,9.26-8.56,0-12.67-6.28-12.67-17.14,0-11.54,7.77-29.82,30.27-29.82C1834.34,179.25,1847.25,187,1847.25,203.93Zm-31.77,75.3c0,5.26-3.88,6.51-5.94,6.51-4.24,0-7.19-3.77-7.19-7.77,0-3.54,2.05-6.29,6.16-6.29C1813.2,271.68,1815.48,275,1815.48,279.23Z"/><path class="cls-14" d="M1120.31,657.73c3.89,11.23.81,19.79-6.06,28.94-10.84,14.41-22.51,23.66-18.78,34.46,1.54,4.42,4.59,5.53,7.08,4.67,2.92-1,3-4,2.48-5.69-.29-1.23-.51-1.88.14-2.1s1.15.56,1.6,1.86c1.17,3.34.38,7-4,8.54-4.1,1.42-9.1.25-11.38-6.34-6.7-19.32,23.2-36,13.91-62.76-3-8.74-10.42-16.45-22.08-12.41-9,3.11-12,10.45-9.74,16.92,3.37,9.72,13.79,9.38,16.81,18.11,1.46,4.22.44,9.65-6.15,11.94-8.09,2.8-14-1.78-17.59-12-3.78-10.9-2.43-30.72,18.83-38.09C1100,638.64,1114.76,641.75,1120.31,657.73ZM1115,739.28c1.72,5-1.53,7.42-3.48,8.1-4,1.39-8-1.2-9.34-5-1.16-3.35-.12-6.62,3.76-8C1110.33,732.9,1113.57,735.28,1115,739.28Z"/><path class="cls-14" d="M1409.23,182.34c.45,11.88-5,19.17-14.22,25.93-14.57,10.63-28.43,16.08-28,27.5.18,4.68,2.78,6.63,5.41,6.53,3.08-.12,4-3,4-4.72.08-1.27.06-2,.74-2s.94.88,1,2.25c.13,3.54-1.68,6.81-6.36,7-4.35.16-8.79-2.41-9-9.38-.79-20.44,32.67-27.67,31.57-56-.35-9.25-5.18-18.78-17.51-18.3-9.48.36-14.51,6.5-14.24,13.35.39,10.28,10.45,13,10.81,22.22.18,4.46-2.39,9.36-9.36,9.63-8.56.33-12.91-5.79-13.33-16.64-.44-11.53,6.62-30.1,29.1-31C1395.38,158.18,1408.58,165.44,1409.23,182.34Zm-28.85,76.47c.2,5.25-3.63,6.65-5.69,6.73-4.23.17-7.33-3.49-7.48-7.48-.14-3.54,1.8-6.36,5.92-6.52C1377.81,251.36,1380.22,254.58,1380.38,258.81Z"/><path class="cls-14" d="M1473.32,219.85c-21.57,2.43-23.56,4.4-26,26-2.44-21.59-4.4-23.56-26-26,21.58-2.44,23.54-4.41,26-26C1449.76,215.44,1451.75,217.41,1473.32,219.85Z"/><path class="cls-14" d="M1065,611.09c-21.57,2.43-23.55,4.41-26,26-2.45-21.58-4.41-23.56-26-26,21.58-2.43,23.54-4.41,26-26C1041.44,606.68,1043.42,608.66,1065,611.09Z"/><path class="cls-14" d="M2025.23,712.66c-21.57,2.44-23.56,4.41-26,26-2.44-21.58-4.41-23.55-26-26,21.57-2.43,23.54-4.4,26-26C2001.67,708.26,2003.66,710.23,2025.23,712.66Z"/><path class="cls-14" d="M1534.48,255.43c-11.91,1.34-13,2.43-14.35,14.34-1.35-11.91-2.43-13-14.35-14.34,11.92-1.35,13-2.44,14.35-14.35C1521.47,253,1522.57,254.08,1534.48,255.43Z"/><path class="cls-14" d="M1048.15,341.71c-11.91,1.35-13,2.43-14.35,14.35-1.34-11.92-2.43-13-14.35-14.35,11.92-1.34,13-2.43,14.35-14.35C1035.15,339.28,1036.24,340.37,1048.15,341.71Z"/><path class="cls-14" d="M2053.93,626.44c-11.91,1.34-13,2.43-14.35,14.35-1.35-11.92-2.44-13-14.35-14.35,11.91-1.35,13-2.44,14.35-14.35C2040.92,624,2042,625.09,2053.93,626.44Z"/><path class="cls-14" d="M1924.43,203c-11.91,1.34-13,2.43-14.35,14.35-1.35-11.92-2.43-13-14.34-14.35,11.91-1.34,13-2.43,14.34-14.35C1911.43,200.58,1912.52,201.67,1924.43,203Z"/></g><g id="TEXTS"><text class="cls-40" transform="translate(201.23 760.68)">Em<tspan class="cls-41" x="35.81" y="0">b</tspan><tspan x="49.89" y="0">a</tspan><tspan class="cls-42" x="62.35" y="0">r</tspan><tspan class="cls-43" x="70.8" y="0">k</tspan><tspan class="cls-44" x="83.63" y="0"> </tspan><tspan x="91.88" y="0">on</tspan><tspan class="cls-44" x="119.26" y="0"> </tspan><tspan class="cls-43" x="127.52" y="0">a</tspan><tspan class="cls-44" x="139.97" y="0"> </tspan><tspan x="148.23" y="0">vi</tspan><tspan class="cls-45" x="165.79" y="0">r</tspan><tspan x="174.7" y="0">tual</tspan><tspan class="cls-44" x="215.83" y="0"> </tspan><tspan class="cls-43" x="224.08" y="0">jou</tspan><tspan class="cls-42" x="257.39" y="0">r</tspan><tspan class="cls-46" x="265.85" y="0">n</tspan><tspan class="cls-47" x="280.07" y="0">e</tspan><tspan x="292.61" y="0">y</tspan><tspan class="cls-48" x="304.26" y="0"> </tspan><tspan x="312.52" y="0">of</tspan><tspan class="cls-48" x="333.16" y="0"> </tspan><tspan x="341.42" y="0">mi</tspan><tspan class="cls-46" x="369.21" y="0">n</tspan><tspan x="383.43" y="0">d-be</tspan><tspan class="cls-49" x="432.58" y="0">n</tspan><tspan x="446.8" y="0">di</tspan><tspan class="cls-46" x="466.89" y="0">n</tspan><tspan x="481.11" y="0">g</tspan><tspan class="cls-48" x="495.46" y="0"> </tspan><tspan x="503.71" y="0">puzzles</tspan><tspan class="cls-44" x="582.85" y="0"> </tspan><tspan class="cls-43" x="591.1" y="0">a</tspan><tspan class="cls-46" x="603.56" y="0">n</tspan><tspan x="617.78" y="0">d </tspan><tspan x="211.6" y="26.7">th</tspan><tspan class="cls-50" x="234.44" y="26.7">r</tspan><tspan x="242.89" y="26.7">illi</tspan><tspan class="cls-46" x="266.53" y="26.7">n</tspan><tspan x="280.75" y="26.7">g </tspan><tspan class="cls-50" x="300.81" y="26.7">c</tspan><tspan x="312.56" y="26.7">halle</tspan><tspan class="cls-51" x="363.75" y="26.7">n</tspan><tspan x="377.97" y="26.7">ges.</tspan></text><text class="cls-52" transform="translate(249.34 716.79)">DIS<tspan class="cls-53" x="68.08" y="0">C</tspan><tspan class="cls-54" x="93.28" y="0">O</tspan><tspan class="cls-53" x="120.75" y="0">V</tspan><tspan class="cls-55" x="145.73" y="0">ER | SO</tspan><tspan class="cls-56" x="296.27" y="0">L</tspan><tspan class="cls-53" x="318.07" y="0">V</tspan><tspan x="343.05" y="0">E | ES</tspan><tspan class="cls-57" x="464.51" y="0">C</tspan><tspan class="cls-55" x="489.68" y="0">A</tspan><tspan class="cls-58" x="515.38" y="0">P</tspan><tspan x="540.66" y="0">E</tspan></text><text class="cls-59" transform="translate(193.92 617.1)">E<tspan class="cls-60" x="89.06" y="0">S</tspan><tspan class="cls-61" x="175.69" y="0">C</tspan><tspan class="cls-62" x="278.02" y="0">A</tspan><tspan class="cls-63" x="396.97" y="0">PE?</tspan></text><text class="cls-64" transform="translate(287.51 452.95)"><tspan class="cls-65">C</tspan><tspan class="cls-66" x="65.22" y="0">A</tspan><tspan x="138.7" y="0">N </tspan><tspan class="cls-67" x="247.69" y="0">Y</tspan><tspan x="322.76" y="0">OU</tspan></text></g></g></g></svg>