<svg xmlns:xlink="http://www.w3.org/1999/xlink" xmlns="http://www.w3.org/2000/svg" viewBox="0 0 370 50.00000000000001" preserveAspectRatio="xMidYMid meet" class="css-tyqyfd" id="edfdhacf" width="923"  height="125" ><defs id="SvgjsDefs1011"></defs><g id="SvgjsG1012" featurekey="symbolFeature-0" transform="matrix(0.5263157894736843,0,0,0.5263157894736843,-1.3157894736842106,-1.3157894736842106)" fill="url(&quot;#symbol-foil0.9&quot;)"><g xmlns="http://www.w3.org/2000/svg" fill="url(&quot;#symbol-foil0.9&quot;)"><path style="" d="M50,2.5C23.809,2.5,2.5,23.821,2.5,50.028c0,25.081,19.521,45.673,44.156,47.397   c0.371,0.026,0.741,0.057,1.114,0.074V86.331v-1.118c-0.373-0.023-0.745-0.05-1.114-0.085   C30.349,83.585,17.257,70.876,15.09,54.747h-1.124c2.179,16.744,15.768,29.947,32.69,31.499v10.062   C22.636,94.586,3.614,74.495,3.614,50.028c0-25.429,20.546-46.137,45.898-46.401v10.035C31.305,13.904,16.3,27.604,13.975,45.253   H15.1C17.438,28.061,32.188,14.765,50,14.765s32.562,13.296,34.9,30.487h1.125c-2.319-17.604-17.253-31.277-35.398-31.586V3.631   c25.288,0.338,45.759,21.015,45.759,46.397c0,24.466-19.022,44.558-43.043,46.279V86.246c16.922-1.552,30.511-14.755,32.69-31.499   H84.91C82.743,70.876,69.65,83.585,53.343,85.128V75.027c12.327-1.642,21.869-12.223,21.869-24.999   c0-12.323-8.878-22.598-20.569-24.785v1.137c11.072,2.172,19.455,11.943,19.455,23.648c0,12.16-9.045,22.241-20.755,23.875V63.701   c6.148-1.506,10.725-7.063,10.725-13.672c0-7.762-6.311-14.077-14.069-14.077s-14.069,6.315-14.069,14.077   c0,6.61,4.577,12.167,10.726,13.672v10.203c-11.71-1.634-20.755-11.715-20.755-23.875c0-11.705,8.383-21.476,19.455-23.648v-1.136   c-11.69,2.187-20.569,12.462-20.569,24.784c0,12.776,9.542,23.356,21.869,24.999c0.369,0.049,0.74,0.091,1.114,0.124v-1.118V63.927   v-1.133c-0.377-0.066-0.749-0.146-1.114-0.244c-5.528-1.479-9.611-6.531-9.611-12.522c0-7.148,5.811-12.962,12.955-12.962   s12.955,5.815,12.955,12.962c0,5.991-4.083,11.043-9.611,12.522c-0.365,0.098-0.737,0.178-1.114,0.244v1.133v15.697   c-0.737,0.055-1.478,0.092-2.229,0.092c-16.36,0-29.67-13.318-29.67-29.688c0-16.206,13.047-29.413,29.183-29.675v10.035   c-10.605,0.261-19.153,8.967-19.153,19.64c0,8.205,5.054,15.247,12.209,18.184v-1.214c-6.525-2.87-11.095-9.393-11.095-16.97   c0-10.222,8.311-18.537,18.526-18.537s18.526,8.316,18.526,18.537c0,7.577-4.57,14.1-11.095,16.97v1.214   c7.155-2.937,12.209-9.979,12.209-18.184c0-10.626-8.474-19.303-19.014-19.637V20.356C66.698,20.693,79.67,33.869,79.67,50.028   c0,13.802-9.464,25.429-22.238,28.738v1.15c13.264-3.303,23.151-15.234,23.342-29.47h10.029   c-0.2,19.791-14.539,36.241-33.371,39.724v1.136c19.585-3.52,34.496-20.683,34.496-41.277c0-21.562-16.344-39.362-37.285-41.681   v1.119C74.741,11.754,90.448,28.7,90.796,49.331H80.767C80.394,32.668,66.741,19.226,50,19.226S19.606,32.668,19.233,49.331H9.204   C9.552,28.7,25.259,11.753,45.356,9.464V8.342C24.415,10.662,8.072,28.466,8.072,50.028c0,20.595,14.911,37.757,34.496,41.277   V90.17C23.736,86.688,9.397,70.237,9.197,50.446h10.029C19.452,67.238,33.166,80.831,50,80.831c0.75,0,1.492-0.036,2.229-0.09V97.5   c0.373-0.017,0.743-0.048,1.114-0.074C77.979,95.702,97.5,75.11,97.5,50.028C97.5,23.821,76.191,2.5,50,2.5z" fill="#F7ED9C"></path></g></g></svg>