<svg xmlns="http://www.w3.org/2000/svg" xmlns:xlink="http://www.w3.org/1999/xlink" viewBox="0 0 2.49 65.82"><defs><style>.cls-1,.cls-10,.cls-11,.cls-12,.cls-13,.cls-14,.cls-15,.cls-16,.cls-2,.cls-3,.cls-4,.cls-5,.cls-6,.cls-7,.cls-8,.cls-9{fill-rule:evenodd;}.cls-1{fill:url(#linear-gradient);}.cls-2{fill:url(#linear-gradient-2);}.cls-3{fill:url(#linear-gradient-3);}.cls-4{fill:url(#linear-gradient-4);}.cls-5{fill:url(#New_Gradient_Swatch_148);}.cls-6{fill:url(#radial-gradient);}.cls-7{fill:url(#linear-gradient-5);}.cls-8{fill:url(#linear-gradient-6);}.cls-9{fill:url(#linear-gradient-7);}.cls-10{fill:url(#linear-gradient-8);}.cls-11{fill:url(#New_Gradient_Swatch_148-2);}.cls-12{fill:url(#radial-gradient-2);}.cls-13{fill:url(#linear-gradient-9);}.cls-14{fill:url(#linear-gradient-10);}.cls-15{fill:url(#linear-gradient-11);}.cls-16{fill:url(#linear-gradient-12);}</style><linearGradient id="linear-gradient" x1="0.99" y1="49.29" x2="2.98" y2="49.29" gradientTransform="matrix(-1, 0, 0, 1, 2.98, 0)" gradientUnits="userSpaceOnUse"><stop offset="0" stop-color="#1b3840"/><stop offset="1" stop-color="#204954"/></linearGradient><linearGradient id="linear-gradient-2" x1="0.99" y1="16.53" x2="2.98" y2="16.53" xlink:href="#linear-gradient"/><linearGradient id="linear-gradient-3" x1="0.48" y1="32.91" x2="0.99" y2="32.91" gradientTransform="matrix(-1, 0, 0, 1, 2.98, 0)" gradientUnits="userSpaceOnUse"><stop offset="0" stop-color="#4e76a6"/><stop offset="1" stop-color="#87b5f5"/></linearGradient><linearGradient id="linear-gradient-4" x1="0.99" y1="32.91" x2="2.98" y2="32.91" gradientTransform="matrix(-1, 0, 0, 1, 2.98, 0)" gradientUnits="userSpaceOnUse"><stop offset="0" stop-color="#335d94"/><stop offset="1" stop-color="#204270"/></linearGradient><linearGradient id="New_Gradient_Swatch_148" x1="2" y1="18.78" x2="2" y2="14.28" gradientTransform="matrix(-1, 0, 0, 1, 2.98, 0)" gradientUnits="userSpaceOnUse"><stop offset="0" stop-color="#6287c9"/><stop offset="1" stop-color="#3b597d"/></linearGradient><radialGradient id="radial-gradient" cx="-6.78" cy="16.53" r="1.29" gradientTransform="translate(7.76)" gradientUnits="userSpaceOnUse"><stop offset="0" stop-color="#f8fc86"/><stop offset="1" stop-color="#edce20"/></radialGradient><linearGradient id="linear-gradient-5" x1="-6.69" y1="14.92" x2="-6.69" y2="14.28" gradientTransform="translate(7.76)" gradientUnits="userSpaceOnUse"><stop offset="0" stop-color="#94885c"/><stop offset="1" stop-color="#2c507a"/></linearGradient><linearGradient id="linear-gradient-6" x1="-6.78" y1="18.78" x2="-6.78" y2="18.05" gradientTransform="translate(7.76)" gradientUnits="userSpaceOnUse"><stop offset="0" stop-color="#99b2bf"/><stop offset="1" stop-color="#9bbd67"/></linearGradient><linearGradient id="linear-gradient-7" x1="-7.08" y1="18.19" x2="-7.08" y2="14.77" gradientTransform="translate(7.76)" gradientUnits="userSpaceOnUse"><stop offset="0" stop-color="#739cb0"/><stop offset="1" stop-color="#476b96"/></linearGradient><linearGradient id="linear-gradient-8" x1="-6.4" y1="18.78" x2="-6.4" y2="14.28" xlink:href="#linear-gradient-7"/><linearGradient id="New_Gradient_Swatch_148-2" x1="2" y1="51.54" x2="2" y2="47.04" xlink:href="#New_Gradient_Swatch_148"/><radialGradient id="radial-gradient-2" cx="-6.78" cy="49.29" r="1.29" xlink:href="#radial-gradient"/><linearGradient id="linear-gradient-9" x1="-6.69" y1="51.54" x2="-6.69" y2="50.9" xlink:href="#linear-gradient-6"/><linearGradient id="linear-gradient-10" x1="-6.78" y1="47.77" x2="-6.78" y2="47.04" xlink:href="#linear-gradient-5"/><linearGradient id="linear-gradient-11" x1="-7.08" y1="51.05" x2="-7.08" y2="47.63" xlink:href="#linear-gradient-7"/><linearGradient id="linear-gradient-12" x1="-6.4" y1="51.54" x2="-6.4" y2="47.04" xlink:href="#linear-gradient-7"/></defs><g id="Layer_2" data-name="Layer 2"><g id="Layer_1-2" data-name="Layer 1"><polygon class="cls-1" points="1.99 54.38 1.99 44.19 0 45.95 0.36 52.84 1.99 54.38 1.99 54.38"/><polygon class="cls-2" points="1.99 11.44 1.99 21.62 0 19.87 0.36 12.98 1.99 11.44 1.99 11.44"/><polyline class="cls-3" points="2.5 65.82 1.99 65.51 1.99 0.1 2.5 0"/><polygon class="cls-4" points="1.99 65.51 1.99 53.78 1.99 44.79 1.99 21.03 1.99 12.03 1.99 0.31 1.49 0.1 1.49 12.33 0.36 12.98 0 19.87 1.49 20.73 1.49 45.08 0 45.95 0.36 52.84 1.49 53.49 1.49 65.72 1.99 65.51 1.99 65.51"/><polygon class="cls-5" points="0.47 18.19 1.49 18.78 1.49 14.28 0.65 14.77 0.47 18.19 0.47 18.19"/><polygon class="cls-6" points="0.73 18.05 1.23 18.34 1.23 14.72 0.89 14.92 0.73 18.05 0.73 18.05"/><polygon class="cls-7" points="0.65 14.77 0.89 14.92 1.23 14.72 1.49 14.28 0.65 14.77 0.65 14.77"/><polygon class="cls-8" points="0.73 18.05 0.47 18.19 1.49 18.78 1.23 18.34 0.73 18.05 0.73 18.05"/><polygon class="cls-9" points="0.47 18.19 0.73 18.05 0.89 14.92 0.65 14.77 0.47 18.19 0.47 18.19"/><polygon class="cls-10" points="1.23 14.72 1.23 18.34 1.49 18.78 1.49 14.28 1.23 14.72 1.23 14.72"/><polygon class="cls-11" points="0.47 47.63 1.49 47.04 1.49 51.54 0.65 51.05 0.47 47.63 0.47 47.63"/><polygon class="cls-12" points="0.73 47.77 1.23 47.48 1.23 51.1 0.89 50.9 0.73 47.77 0.73 47.77"/><polygon class="cls-13" points="0.65 51.05 0.89 50.9 1.23 51.1 1.49 51.54 0.65 51.05 0.65 51.05"/><polygon class="cls-14" points="0.73 47.77 0.47 47.63 1.49 47.04 1.23 47.48 0.73 47.77 0.73 47.77"/><polygon class="cls-15" points="0.47 47.63 0.73 47.77 0.89 50.9 0.65 51.05 0.47 47.63 0.47 47.63"/><polygon class="cls-16" points="1.23 51.1 1.23 47.48 1.49 47.04 1.49 51.54 1.23 51.1 1.23 51.1"/></g></g></svg>