<svg xmlns="http://www.w3.org/2000/svg" xmlns:xlink="http://www.w3.org/1999/xlink" viewBox="0 0 183.18 37.89"><defs><style>.cls-1{isolation:isolate;}.cls-2{fill:red;opacity:0.65;}.cls-3{fill:#fff;}.cls-4{opacity:0.6;mix-blend-mode:lighten;}.cls-5{fill:url(#linear-gradient);}</style><linearGradient id="linear-gradient" x1="85.85" y1="-15.05" x2="97.84" y2="52.94" gradientUnits="userSpaceOnUse"><stop offset="0.09" stop-color="#fff"/><stop offset="0.13" stop-color="#f7f4f2"/><stop offset="0.2" stop-color="#e2d7d1"/><stop offset="0.29" stop-color="#bfa79b"/><stop offset="0.4" stop-color="#906751"/><stop offset="0.48" stop-color="#6a3316"/><stop offset="0.6" stop-color="#4c2510"/><stop offset="0.77" stop-color="#231107"/><stop offset="0.92" stop-color="#090502"/><stop offset="1"/></linearGradient></defs><g class="cls-1"><g id="Layer_2" data-name="Layer 2"><g id="layer_1-2" data-name="layer 1"><rect class="cls-2" y="0.5" width="181.68" height="36.89"/><path class="cls-3" d="M52.37,13v.2a.12.12,0,0,1-.14.14H48.64s0,0,0,.05V24.88c0,.09-.05.13-.14.13h-.24c-.1,0-.14,0-.14-.13V13.41s0-.05-.06-.05H44.6a.12.12,0,0,1-.14-.14V13a.12.12,0,0,1,.14-.14h7.63A.12.12,0,0,1,52.37,13Z"/><path class="cls-3" d="M59.81,17a3,3,0,0,1,.72,2.11v5.81c0,.09,0,.13-.14.13h-.24c-.09,0-.14,0-.14-.13v-1s0,0,0,0h-.05a2.68,2.68,0,0,1-1.2.93,4.28,4.28,0,0,1-1.69.32,3.35,3.35,0,0,1-2-.58,2.08,2.08,0,0,1-.81-1.81,2.34,2.34,0,0,1,.94-2,4.22,4.22,0,0,1,2.61-.72H60s0,0,0-.05V19a2.17,2.17,0,0,0-2.44-2.36,2.94,2.94,0,0,0-1.61.41,1.65,1.65,0,0,0-.78,1.12c0,.09-.08.13-.16.12l-.26-.05q-.13,0-.12-.12a2.13,2.13,0,0,1,1-1.42,3.5,3.5,0,0,1,2-.54A2.87,2.87,0,0,1,59.81,17Zm-.67,7.15A1.82,1.82,0,0,0,60,22.5V20.59s0-.05,0-.05H57.78a3.73,3.73,0,0,0-2.19.58,1.88,1.88,0,0,0-.83,1.62,1.71,1.71,0,0,0,.65,1.45,2.67,2.67,0,0,0,1.67.49A3.7,3.7,0,0,0,59.14,24.11Z"/><path class="cls-3" d="M63.57,24.88V13c0-.1,0-.14.14-.14H64a.12.12,0,0,1,.14.14v7.85l0,0h0l4.45-4.49a.24.24,0,0,1,.18-.07h.33s.09,0,.11.05,0,.07,0,.12L67,18.75s0,.06,0,.07l2.69,6s0,0,0,.07,0,.08-.12.08h-.26c-.09,0-.15,0-.17-.1l-2.52-5.72s0,0-.07,0L64.12,21.6l0,.07v3.21c0,.09,0,.13-.14.13h-.24C63.61,25,63.57,25,63.57,24.88Z"/><path class="cls-3" d="M76.42,24.23a2.35,2.35,0,0,0,1-1.16l0-.07a.14.14,0,0,1,.09-.05h.09l.17,0c.09,0,.12.08.09.17a3,3,0,0,1-1.14,1.45,3.37,3.37,0,0,1-1.91.54,3.19,3.19,0,0,1-2-.61,3,3,0,0,1-1.08-1.64,4,4,0,0,1-.13-.88q0-.46,0-1.38t0-1.29a4.48,4.48,0,0,1,.11-.86,2.85,2.85,0,0,1,1.07-1.67,3.2,3.2,0,0,1,2-.63,3.31,3.31,0,0,1,2.08.65,2.86,2.86,0,0,1,1,1.74,4,4,0,0,1,.09.79c0,.32,0,.74,0,1.27a.12.12,0,0,1-.14.14H72.13s0,0,0,.06c0,.4,0,.76,0,1.08a3.43,3.43,0,0,0,.07.7A2.36,2.36,0,0,0,73,24.1a2.72,2.72,0,0,0,1.76.57A3,3,0,0,0,76.42,24.23Zm-3.39-7a2.37,2.37,0,0,0-.86,1.46,9,9,0,0,0-.09,1.58,0,0,0,0,0,0,0h5.33a0,0,0,0,0,.05,0,8.37,8.37,0,0,0-.09-1.56,2.47,2.47,0,0,0-.89-1.48,3,3,0,0,0-3.5,0Z"/><path class="cls-3" d="M89.38,17a3,3,0,0,1,.72,2.11v5.81c0,.09,0,.13-.14.13h-.25c-.09,0-.13,0-.13-.13v-1a0,0,0,0,0,0,0h0a2.71,2.71,0,0,1-1.21.93,4.24,4.24,0,0,1-1.69.32,3.3,3.3,0,0,1-2-.58,2.06,2.06,0,0,1-.82-1.81,2.35,2.35,0,0,1,1-2,4.22,4.22,0,0,1,2.61-.72h2.16s.06,0,.06-.05V19a2.17,2.17,0,0,0-2.45-2.36,3,3,0,0,0-1.61.41,1.65,1.65,0,0,0-.78,1.12c0,.09-.08.13-.16.12l-.26-.05q-.13,0-.12-.12a2.17,2.17,0,0,1,1-1.42,3.5,3.5,0,0,1,2-.54A2.88,2.88,0,0,1,89.38,17Zm-.68,7.15a1.83,1.83,0,0,0,.88-1.61V20.59s0-.05-.06-.05H87.34a3.75,3.75,0,0,0-2.19.58,1.88,1.88,0,0,0-.83,1.62A1.71,1.71,0,0,0,85,24.19a2.69,2.69,0,0,0,1.67.49A3.68,3.68,0,0,0,88.7,24.11Z"/><path class="cls-3" d="M99.75,24.53c.1,0,.14,0,.14.14v.21c0,.09,0,.13-.14.13h-.41a2.76,2.76,0,0,1-1.74-.46,2.06,2.06,0,0,1-.6-1.7v-6s0-.05-.06-.05h-1.1a.12.12,0,0,1-.14-.14v-.19c0-.1,0-.14.14-.14h1.1s.06,0,.06,0v-2c0-.09,0-.13.14-.13h.22c.09,0,.14,0,.14.13v2a0,0,0,0,0,0,0h2.17a.12.12,0,0,1,.14.14v.19a.13.13,0,0,1-.14.14H97.55s0,0,0,.05v6A1.69,1.69,0,0,0,98,24.16a2.26,2.26,0,0,0,1.42.37Z"/><path class="cls-3" d="M103.32,24.53a3,3,0,0,1-1.09-1.67,5.17,5.17,0,0,1-.11-.85c0-.32,0-.78,0-1.37s0-1,0-1.3a5.15,5.15,0,0,1,.11-.86,2.79,2.79,0,0,1,1.08-1.67,3.63,3.63,0,0,1,4.07,0,2.74,2.74,0,0,1,1.08,1.66,8.12,8.12,0,0,1,.12,1.66v1.08a8,8,0,0,1-.12,1.64,2.81,2.81,0,0,1-1.09,1.66,3.29,3.29,0,0,1-2,.63A3.26,3.26,0,0,1,103.32,24.53Zm3.77-.43a2.49,2.49,0,0,0,.9-1.48,17,17,0,0,0,.07-2,16.4,16.4,0,0,0-.07-1.94,2.41,2.41,0,0,0-.89-1.47,3,3,0,0,0-3.51,0,2.38,2.38,0,0,0-.89,1.48,12.92,12.92,0,0,0-.09,1.94,12.88,12.88,0,0,0,.09,2,2.41,2.41,0,0,0,.88,1.48,2.68,2.68,0,0,0,1.76.57A2.73,2.73,0,0,0,107.09,24.1Z"/><path class="cls-3" d="M117.14,16.33h.25c.09,0,.13,0,.13.14v8.41c0,.09,0,.13-.13.13h-.25c-.09,0-.13,0-.13-.13v-1s0,0,0,0l0,0a2.59,2.59,0,0,1-1,1,3.31,3.31,0,0,1-1.55.34,2.84,2.84,0,0,1-2.1-.78,2.73,2.73,0,0,1-.81-2.08v-5.8a.12.12,0,0,1,.14-.14h.24a.12.12,0,0,1,.14.14v5.7a2.34,2.34,0,0,0,2.46,2.48A2.56,2.56,0,0,0,116.3,24a2.37,2.37,0,0,0,.71-1.79v-5.7C117,16.37,117.05,16.33,117.14,16.33Z"/><path class="cls-3" d="M124.89,16.47c.1,0,.12.09.07.17l-.1.28s-.07.08-.1.08a.16.16,0,0,1-.11,0,2.4,2.4,0,0,0-.85-.14,2.19,2.19,0,0,0-1.25.38,2.52,2.52,0,0,0-.86,1,3,3,0,0,0-.32,1.37v5.28c0,.09,0,.13-.13.13H121c-.09,0-.14,0-.14-.13V16.47a.12.12,0,0,1,.14-.14h.25c.09,0,.13,0,.13.14v1.4s0,0,0,0,0,0,0,0a2.8,2.8,0,0,1,1-1.19,2.48,2.48,0,0,1,1.44-.44A2.41,2.41,0,0,1,124.89,16.47Z"/><polygon class="cls-3" points="136.87 25.06 136.42 24.61 140.85 20.18 136.42 15.75 136.87 15.3 141.75 20.18 136.87 25.06"/><g class="cls-4"><path class="cls-5" d="M183.18,37.89H.5V0H183.18ZM1.5,36.89H182.18V1H1.5Z"/></g></g></g></g></svg>